<?xml version="1.0" encoding="UTF-8" standalone="no"?> <!-- Created with Vectornator for iOS (http://vectornator.io/) --><!DOCTYPE svg PUBLIC "-//W3C//DTD SVG 1.1//EN" "http://www.w3.org/Graphics/SVG/1.1/DTD/svg11.dtd">
<svg style="fill-rule:evenodd;clip-rule:evenodd;stroke-linecap:round;stroke-linejoin:round;" xmlns:vectornator="http://vectornator.io" xmlns:xlink="http://www.w3.org/1999/xlink" xmlns="http://www.w3.org/2000/svg" xml:space="preserve" version="1.1" viewBox="0 0 360 650">
<metadata>
<vectornator:setting key="DisplayWhiteBackground" value="0"/>
<vectornator:setting key="RulersVisible" value="1"/>
<vectornator:setting key="GridSpacing" value="36"/>
<vectornator:setting key="Units" value="Pixels"/>
<vectornator:setting key="DynamicGuides" value="0"/>
<vectornator:setting key="SnapToPoints" value="0"/>
<vectornator:setting key="CMYKEnabledKey" value="0"/>
<vectornator:setting key="SnapToGrid" value="0"/>
<vectornator:setting key="SnapToGuides" value="1"/>
<vectornator:setting key="ShowGrid" value="1"/>
<vectornator:setting key="SnapToEdges" value="0"/>
</metadata>
<defs/>
<g id="Layer 1" vectornator:layerName="Layer 1">
<g opacity="1">
<path d="M310.967+512.143C311.03+512.846+311.206+513.385+311.495+513.76C312.026+514.44+312.948+514.78+314.26+514.78C315.042+514.78+315.729+514.61+316.323+514.27C316.917+513.93+317.214+513.405+317.214+512.694C317.214+512.155+316.975+511.745+316.499+511.463C316.194+511.291+315.592+511.092+314.694+510.866L313.018+510.444C311.948+510.178+311.159+509.881+310.651+509.553C309.745+508.983+309.292+508.194+309.292+507.186C309.292+505.998+309.719+505.038+310.575+504.303C311.43+503.569+312.581+503.202+314.026+503.202C315.917+503.202+317.28+503.756+318.116+504.866C318.639+505.569+318.893+506.327+318.878+507.139L316.885+507.139C316.846+506.662+316.678+506.229+316.382+505.838C315.897+505.284+315.057+505.006+313.862+505.006C313.065+505.006+312.462+505.159+312.051+505.463C311.641+505.768+311.436+506.17+311.436+506.67C311.436+507.217+311.706+507.655+312.245+507.983C312.557+508.178+313.018+508.35+313.628+508.498L315.022+508.838C316.538+509.205+317.553+509.561+318.069+509.905C318.889+510.444+319.299+511.291+319.299+512.448C319.299+513.565+318.876+514.53+318.028+515.342C317.18+516.155+315.889+516.561+314.155+516.561C312.288+516.561+310.965+516.137+310.188+515.289C309.411+514.442+308.995+513.393+308.94+512.143L310.967+512.143Z" opacity="1" fill="#ffffff"/>
<path d="M311.049+537.552C311.049+538.895+311.335+540.02+311.905+540.927C312.475+541.833+313.389+542.286+314.647+542.286C315.624+542.286+316.426+541.866+317.055+541.026C317.684+540.186+317.999+538.981+317.999+537.411C317.999+535.825+317.674+534.651+317.026+533.889C316.378+533.128+315.577+532.747+314.624+532.747C313.561+532.747+312.7+533.153+312.04+533.966C311.38+534.778+311.049+535.973+311.049+537.552ZM314.225+530.907C315.186+530.907+315.991+531.11+316.639+531.516C317.014+531.751+317.44+532.161+317.917+532.747L317.917+526.407L319.944+526.407L319.944+543.68L318.046+543.68L318.046+541.934C317.553+542.708+316.971+543.266+316.299+543.61C315.628+543.954+314.858+544.126+313.991+544.126C312.592+544.126+311.382+543.538+310.358+542.362C309.335+541.186+308.823+539.622+308.823+537.669C308.823+535.841+309.29+534.257+310.223+532.917C311.157+531.577+312.491+530.907+314.225+530.907Z" opacity="1" fill="#ffffff"/>
<path d="M310.241+556.82C310.272+555.945+310.424+555.304+310.698+554.898C311.19+554.179+312.139+553.82+313.546+553.82C313.678+553.82+313.815+553.823+313.956+553.831C314.096+553.839+314.257+553.851+314.436+553.866L314.436+555.788C314.217+555.773+314.059+555.763+313.962+555.759C313.864+555.755+313.772+555.753+313.686+555.753C313.046+555.753+312.663+555.919+312.538+556.251C312.413+556.583+312.35+557.429+312.35+558.788L314.436+558.788L314.436+560.452L312.327+560.452L312.327+571.28L310.241+571.28L310.241+560.452L308.495+560.452L308.495+558.788L310.241+558.788L310.241+556.82Z" opacity="1" fill="#ffffff"/>
<path d="M316.487+556.82C316.518+555.945+316.671+555.304+316.944+554.898C317.436+554.179+318.385+553.82+319.792+553.82C319.924+553.82+320.061+553.823+320.202+553.831C320.342+553.839+320.503+553.851+320.682+553.866L320.682+555.788C320.464+555.773+320.305+555.763+320.208+555.759C320.11+555.755+320.018+555.753+319.932+555.753C319.292+555.753+318.909+555.919+318.784+556.251C318.659+556.583+318.596+557.429+318.596+558.788L320.682+558.788L320.682+560.452L318.573+560.452L318.573+571.28L316.487+571.28L316.487+560.452L314.741+560.452L314.741+558.788L316.487+558.788L316.487+556.82Z" opacity="1" fill="#ffffff"/>
<path d="M314.143+586.107C315.128+586.107+315.987+586.349+316.721+586.834C317.12+587.107+317.526+587.505+317.94+588.029L317.94+586.447L319.885+586.447L319.885+597.861C319.885+599.455+319.651+600.712+319.182+601.634C318.307+603.338+316.655+604.189+314.225+604.189C312.874+604.189+311.737+603.886+310.815+603.281C309.893+602.675+309.378+601.728+309.268+600.439L311.413+600.439C311.514+601.002+311.717+601.435+312.022+601.74C312.499+602.209+313.249+602.443+314.272+602.443C315.889+602.443+316.948+601.873+317.448+600.732C317.745+600.06+317.882+598.861+317.858+597.134C317.436+597.775+316.928+598.252+316.335+598.564C315.741+598.877+314.956+599.033+313.979+599.033C312.62+599.033+311.43+598.55+310.411+597.586C309.391+596.621+308.882+595.025+308.882+592.798C308.882+590.697+309.395+589.056+310.423+587.877C311.45+586.697+312.69+586.107+314.143+586.107ZM317.94+592.552C317.94+590.998+317.62+589.845+316.979+589.095C316.339+588.345+315.522+587.97+314.53+587.97C313.046+587.97+312.03+588.666+311.483+590.056C311.194+590.798+311.049+591.771+311.049+592.974C311.049+594.388+311.337+595.464+311.911+596.203C312.485+596.941+313.257+597.31+314.225+597.31C315.741+597.31+316.807+596.627+317.424+595.259C317.768+594.486+317.94+593.584+317.94+592.552Z" opacity="1" fill="#ffffff"/>
</g>
<path stroke="#000000" stroke-width="1.51" d="M256.519+91.3084C296.33+107.223+313.757+145.451+329.178+182.837C347.004+226.056+344.609+275.612+348.605+321.333C353.474+377.033+354.65+436.028+351.278+492C350.609+503.1+349.875+514.363+348.576+525.406C347.521+534.38+347.371+543.268+345.833+552.194C344.563+559.569+342.667+566.425+341.02+573.639C338.72+583.717+331.298+640.526+315.389+637.556L315.278+637.111C324.589+634.53+328.942+620.749+330.435+611.7C335.181+582.922+342.622+554.735+346.091+525.26C347.156+516.208+347.546+507.014+348.068+497.926C351.408+439.74+350.665+379.334+346.061+321.333C342.771+279.878+342.88+238.01+331.407+197.669C319.438+155.581+296.802+111.567+255.481+92.6916" fill="#000000" stroke-linecap="butt" opacity="1" stroke-linejoin="round"/>
<path stroke="#000000" stroke-width="1.51" d="M311.333+633.907C262.714+641.98+212.905+639.012+163.904+635.728C139.201+634.072+115.713+634.438+91.0681+631.194C79.427+629.661+43.8+630.807+35.3333+623.793L35.3333+622.874C39.1995+619.671+50.6399+624.081+54.9539+624.66C73.9365+627.205+92.9889+631.294+112.067+632.856C129.451+634.28+146.763+632.291+164.096+633.606C212.771+637.296+262.982+640.847+311.333+632.76" fill="#000000" stroke-linecap="butt" opacity="1" stroke-linejoin="round"/>
<path stroke="#000000" stroke-width="1.51" d="M85.4738+103.92C73.1806+119.557+61.9816+132.145+53.1547+150.026C48.0209+160.426+45.868+174.372+43.5258+185.66C37.1971+216.161+29.9156+245.023+26.2574+276.167C18.0277+346.232+15.2197+416.019+10.3196+486.103C8.4965+512.178+10.9634+538.637+8.90713+564.667C7.80308+578.642+4.74674+598.482+10.1211+611.758C14.7645+623.228+28.339+626.662+38.1591+631.47L37.8409+632.53C0.274585+620.753+3.06139+600.743+5.75953+564.667C7.3617+543.244+6.4303+520.714+6.38555+499.253C6.27732+447.34+13.6992+396.32+16.3998+344.587C19.2471+290.044+28.7765+237.97+40.4742+185.006C43.0369+173.403+45.4454+159.306+50.8453+148.64C59.8981+130.76+71.0391+118.127+83.8596+102.746" fill="#000000" stroke-linecap="butt" opacity="1" stroke-linejoin="round"/>
<path stroke="#000000" stroke-width="1.51" d="M246.302+98.0748C208.108+101.498+165.448+107.249+127.101+103.427C117.808+102.501+98.3949+105.251+94.9663+94.2447L95.7004+93.7553C140.305+105.775+197.88+98.9395+245.698+95.2585" fill="#000000" stroke-linecap="butt" opacity="1" stroke-linejoin="round"/>
<path stroke="#000000" stroke-width="1.51" d="M90.3245+85.5015C90.6581+84.4807+93.1679+70.1918+95.0599+68.1966C100.034+62.9516+116.384+65.2527+122.667+64.7368C151.085+62.4033+179.461+63.8519+208+63.9338C223.298+63.9778+243.313+61.4574+257.311+68.0443C264.976+71.6509+256.367+92.2012+251.27+94.6037L250.063+93.3963C253.121+91.6976+260.463+71.4326+255.102+70.0548C234.547+64.7721+211.993+66.7374+190.667+66.7698C172.448+66.7974+154.2+65.2031+136+66.6867C131.48+67.0551+97.9782+67.2112+96.2319+69.3333C95.2227+70.5597+92.4353+84.8918+92.3421+85.1652" fill="#000000" stroke-linecap="butt" opacity="1" stroke-linejoin="round"/>
<path stroke="#000000" stroke-width="1.51" d="M116.722+63.4181C150.244+68.9656+190.144+71.7061+223.821+66.0822C227.375+65.4887+260.384+64.9975+253.26+53.3333C247.408+43.7539+230.101+43.6507+220.297+41.3053C194.809+35.2079+131.581+28.3329+107.996+43.9879C104.658+46.2039+94.4293+56.86+97.5518+59.3333C100.939+62.0165+150.089+72.0519+116.611+65.2486C107.912+63.4806+98.4141+67.2652+94.0182+60.9909C89.3693+54.3557+101.287+43.6136+106.671+40.0121C131.289+23.5419+194.568+30.4461+221.036+37.3614C232.077+40.246+250.828+41.1946+256.074+53.3333C262.499+68.202+230.112+67.5975+224.179+68.5845" fill="#000000" stroke-linecap="butt" opacity="1" stroke-linejoin="round"/>
<path stroke="#000000" stroke-width="1.51" d="M186.598+38.0792C159.852+53.3044+153.519+34.2854+158.743+11.3333C159.822+6.59186+184.295+7.09065+190+6.83018C192.234+6.72817+192.882+14.862+193.31+12.6667C193.889+9.6899+193.619+20.5936+193.242+22.2727C191.884+28.3289+165.862+47.1181+184.736+35.9208C188.829+33.492+188.278+26.9342+189.424+21.7273C190.276+17.8551+188.753+10.9909+190.667+10.503C192.389+10.0638+187.111+10.5106+185.333+10.5026C183.359+10.4937+182.269+10.6115+180.32+11.0953C175.844+12.207+161.408+11.1763+161.257+11.3333C159.766+12.8841+160.082+19.8393+160.092+22" fill="#000000" stroke-linecap="butt" opacity="1" stroke-linejoin="round"/>
<path stroke="#000000" stroke-width="1.51" d="M274.628+550.22C281.823+550.693+289.096+551.328+296.044+553.251C297.096+553.543+304.156+561.782+304.528+562.179C320.594+579.344+284.757+589.547+272.938+593.329C241.229+603.474+203.681+607.877+170.642+603.39C148.569+600.392+151.497+577.289+169.64+568.853C208.167+550.94+304.091+554.886+274.705+551.78C260.017+550.228+243.201+548.998+228.287+550.193C210.13+551.648+187.308+562.291+170.36+569.813C153.069+577.488+149.696+599.069+170.692+601.943C208.254+607.086+251.275+600.986+286.316+586.715" fill="#000000" stroke-linecap="butt" opacity="1" stroke-linejoin="round"/>
<path stroke="#000000" stroke-width="1.51" d="M145.088+545.76C159.636+550.896+170.211+563.681+182.505+573.002C183.427+573.701+184.297+574.637+184.635+575.743C187.7+585.769+153.882+596.37+149.035+597.561C121.793+604.249+91.8642+600.88+66.3683+589.583C39.3331+577.604+44.7069+554.531+68.8668+543.934C95.2727+532.351+159.117+552.79+144.912+546.906C129.847+540.666+113.997+539.107+97.4738+539.538C71.3906+540.217+19.7654+566.707+66.965+587.75C96.1874+600.779+132.221+603.476+162.179+591.137C164.183+590.311+184.005+581.22+183.365+577.59C183.18+576.541+182.328+575.662+181.495+574.998" fill="#000000" stroke-linecap="butt" opacity="1" stroke-linejoin="round"/>
<path stroke="#000000" stroke-width="1.51" d="M292.783+479.225C277.392+494.936+264.217+513.178+246.609+526.358C238.327+532.557+227.237+533.956+217.076+535.895C204.275+538.338+191.145+538.578+178.141+539.425C169.68+539.976+161.191+540.245+152.714+540.086C137.799+539.807+108.261+526.562+133.331+511.574C156.06+497.987+185.372+494.611+210.43+487.153C216.734+485.277+228.667+478.126+235.487+483.103L235.18+483.563C227.693+481.583+217.944+486.787+210.903+488.847C185.906+496.16+157.763+499.852+134.669+512.426C109.959+525.878+138.384+538.356+152.62+538.58C161.035+538.713+169.458+538.411+177.859+537.908C190.678+537.141+203.622+537.067+216.258+534.772C226.271+532.953+237.084+531.521+245.391+525.642C263.101+513.107+276.831+495.731+292.55+480.775" fill="#000000" stroke-linecap="butt" opacity="1" stroke-linejoin="round"/>
<path stroke="#000000" stroke-width="1.51" d="M78+470C96.3986+467.214+135.816+457.129+154.225+470.292C176.273+486.057+150.061+509.955+134.582+514.195C111.459+520.529+75.63+528.303+53.138+514.918C48.9559+512.429+26.1266+496.288+34.1771+487.533C50.6715+469.595+93.0559+472.419+115.307+465.844L115.359+466.156C93.5544+474.258+52.1149+470.129+35.1562+487.134C27.0576+495.254+49.8625+510.904+53.5287+513.082C75.7795+526.3+110.398+518.438+133.418+512.472C146.751+509.016+173.748+487.568+153.775+472.375C136.736+459.414+95.2585+468.292+78+470" fill="#000000" stroke-linecap="butt" opacity="1" stroke-linejoin="round"/>
<path stroke="#000000" stroke-width="1.51" d="M168.932+412.169C165.893+429.156+169.321+448.728+159.814+463.131C154.84+470.666+141.944+465.784+132.958+466.667C128.24+467.131+123.466+467.6+118.745+467.168C97.9777+465.267+73.6535+460.029+56.2727+447.643C52.557+444.995+47.7388+437.364+51.1191+432.28C55.3475+425.922+70.6188+415.298+76.7685+410.641C81.1619+407.314+84.9389+402.997+90.7955+402.392C106.389+400.782+121.594+406.961+137.31+403.859L137.357+405.474C121.857+408.614+107.173+403.21+91.8711+404.275C81.4033+405.002+38.9636+432.732+57.0607+445.69C76.8677+459.873+107.092+466.13+131.042+465.333C139.883+465.038+152.28+470.664+157.519+463.536C167.435+450.044+164.774+430.844+168.401+414.498" fill="#000000" stroke-linecap="butt" opacity="1" stroke-linejoin="round"/>
<path stroke="#000000" stroke-width="1.51" d="M212.395+412.517C248.547+417.423+284.947+420.768+320.853+427.234C323.82+427.769+326.276+430.553+327.594+433.265C333.715+445.858+316.55+454.249+306.855+457.929C274.325+470.273+228.731+481.761+194.539+469.532C153.15+454.73+168.191+440.97+196.523+423.479C219.516+409.284+234.856+402.013+261.366+410.972L261.3+411.695C248.993+415.261+234.282+405.363+221.476+411.327C213.171+415.195+205.99+421.124+198.144+425.854C194.455+428.078+175.27+438.216+171.287+442.792C163.803+451.388+190.02+464.68+194.794+466.468C220.586+476.125+257.006+470.421+282.825+463.312C294.84+460.005+315.602+452.608+325.271+443.265C330.055+438.642+326.194+431.196+320.48+430.099C284.891+423.264+248.786+419.466+212.939+414.149" fill="#000000" stroke-linecap="butt" opacity="1" stroke-linejoin="round"/>
<path stroke="#000000" stroke-width="1.51" d="M250.531+329.408C268.973+338.95+288.443+346.725+305.858+358.034C319.159+366.671+293.318+383.973+290.319+385.732C284.909+388.906+279.24+391.696+273.368+393.901C236.377+407.79+183.121+405.225+151.08+379.868C144.907+374.983+184.364+356.234+189.458+353.647C207.222+344.625+254.449+329.602+270.837+344.993L270.497+345.674C267.966+346.239+263.814+342.062+260.746+341.796C249.744+340.84+233.371+342.367+223.047+344.428C212.261+346.582+200.485+350.793+190.542+355.686C179.771+360.987+158.853+367.375+150.28+375.627C147.131+378.657+156.998+381.397+160.975+383.208C172.762+388.577+183.944+393.993+196.72+396.91C220.552+402.352+249.051+400.014+271.965+391.432C275.424+390.137+319.82+370.669+304.809+360.633C287.861+349.301+268.805+341.494+250.803+331.925" fill="#000000" stroke-linecap="butt" opacity="1" stroke-linejoin="round"/>
<path stroke="#000000" stroke-width="1.51" d="M137.843+335.455C141.183+349.221+147.626+362.589+147.863+376.752C148.015+385.827+114.253+391.226+106.906+391.892C94.076+393.054+77.7983+395.296+66.4713+387.671C54.7909+379.809+41.7943+361.504+48.7677+346C51.4991+339.928+65.2393+336.812+70.3379+335.145C79.1271+332.272+91.1365+329.09+99.6479+326.709C107.848+324.415+122.973+318.166+132.447+319.35C139.395+320.218+145.204+325.806+152.592+322.222L152.741+323.112C143.953+327.619+136.318+321.177+127.65+322.632C108.606+325.829+89.5962+331.663+70.9955+336.855C66.8611+338.009+52.3544+340.823+49.8989+346C47.5515+350.949+50.1458+364.674+51.9757+369.409C62.5689+396.82+96.9598+391.101+119.488+387.463C124.999+386.573+130.76+386.592+135.999+384.667C139.638+383.329+145.402+381.791+145.47+377.914C145.711+364.263+139.706+351.224+136.823+337.878" fill="#000000" stroke-linecap="butt" opacity="1" stroke-linejoin="round"/>
<path stroke="#000000" stroke-width="1.51" d="M212.545+266.157C243.262+267.92+274.437+265.876+304.696+271.446C309.235+272.282+308.971+279.699+310.229+284.14C314.879+300.56+298.887+310.31+286.779+317.517C253.012+337.616+204.038+347.326+165.838+334.581C142.124+326.669+158.572+310.003+168.913+297.185C182.732+280.055+204.243+276.984+224.215+270C231.669+267.393+243.754+260.834+252.667+263.119L252.667+263.548C235.902+268.95+219.321+275.038+202.583+280.681C182.12+287.58+176.618+292.686+163.207+309.083C160.28+312.661+149.902+319.621+155.751+326.776C172.297+347.016+243.876+334.432+264.094+326.361C278.508+320.607+301.4+310.306+308.81+294.955C310.801+290.831+310.007+274.958+304.637+273.887C274.533+267.88+243.404+269.413+212.788+267.176" fill="#000000" stroke-linecap="butt" opacity="1" stroke-linejoin="round"/>
<path stroke="#000000" stroke-width="1.51" d="M165.04+266.133C142.653+266.113+120.236+264.923+97.8777+266.073C91.9914+266.375+46.9026+285.02+60.6784+295.808C76.1493+307.924+96.2293+306.403+114.193+310.531C129.676+314.089+137.542+324.204+154.653+319.206L154.681+319.461C137.354+325.934+129.671+316.987+113.807+313.469C95.556+309.421+72.1621+311.455+57.9882+296.192C45.1975+282.419+90.1755+263.527+98.1223+263.261C121.059+262.491+144.014+264.109+166.96+264.533" fill="#000000" stroke-linecap="butt" opacity="1" stroke-linejoin="round"/>
<path stroke="#000000" stroke-width="1.51" d="M157.053+205.018C185.671+209.964+214.698+212.95+242.907+219.858C249.682+221.517+255.722+239.097+250.722+244.964C239.432+258.21+219.519+263.224+202.938+263.988C175.286+265.262+148.019+260.902+121.116+255.085C118.142+254.442+98.6647+252.683+98.2607+246.863C97.5713+236.931+139.687+212.931+146.826+211.113C153.669+209.37+160.903+209.914+167.901+208.977C175.617+207.944+190.556+203.017+199.22+204.758C206.554+206.231+210.45+209.122+218.644+208.278L218.69+209.056C209.085+210.795+202.872+206.47+194.175+207.137C188.528+207.57+171.244+210.606+168.099+211.023C161.376+211.915+154.427+211.272+147.84+212.887C142.815+214.119+99.6659+238.504+99.0726+245.137C98.6021+250.399+119.675+252.524+121.55+252.915C148.096+258.437+175.192+262.455+202.396+261.345C218.602+260.684+235.851+255.803+247.945+244.369C252.63+239.94+248.364+224.346+242.426+222.809C214.586+215.6+185.885+212.258+157.614+206.982" fill="#000000" stroke-linecap="butt" opacity="1" stroke-linejoin="round"/>
<path stroke="#000000" stroke-width="1.51" d="M259.785+169.044C269.995+184.803+288.079+193.826+300.966+207.484C310.063+217.125+320.756+259.138+305.71+268.745C297.598+273.925+281.928+261.806+277.285+256.304C258.981+234.613+252.294+205.818+238.703+181.832C234.673+174.719+225.678+168.36+228.649+158.667C230.606+152.283+269.422+186.322+258.882+170.956C253.835+163.598+231.842+157.355+231.351+158.667C228.046+167.487+237.739+174.525+241.297+180.835C254.592+204.414+261.092+232.932+278.715+254.363C281.985+258.339+297.112+270.832+303.624+267.255C315.178+260.908+310.592+234.975+306.708+226.596C304.125+221.025+303.185+214.374+299.034+209.849" fill="#000000" stroke-linecap="butt" opacity="1" stroke-linejoin="round"/>
<path stroke="#000000" stroke-width="1.51" d="M186.485+156.655C200.895+162.905+216.547+166.842+229.715+175.404C234.707+178.65+202.778+196.474+197.888+197.724C170.023+204.844+136.019+208.284+107.317+203.546C71.9249+197.703+94.8568+176.991+114.213+169.223C123.472+165.507+130.397+164.606+140.414+162.349C150.186+160.149+161.064+156.507+171.16+155.305L171.507+156.695C156.371+160.992+140.938+163.776+125.697+167.593C109.969+171.531+64.7291+195.078+107.35+201.788C135.712+206.253+169.262+202.586+196.778+195.61C199.262+194.98+234.125+181.404+228.952+177.929C216.217+169.375+200.883+165.54+186.848+159.345" fill="#000000" stroke-linecap="butt" opacity="1" stroke-linejoin="round"/>
<path stroke="#000000" stroke-width="1.51" d="M102.673+202.334C110.023+205.439+110.164+217.004+110.429+224.979C110.592+229.871+106.809+234.205+103.863+238.115C93.625+251.704+74.4999+258.382+59.0514+263.677C57.4998+264.208+46.4984+270.613+45.7114+264.199C44.7809+256.616+51.8994+245.379+55.1816+238.97C56.8226+235.765+58.1803+232.325+60.4874+229.561C62.1507+227.569+76.8782+216.001+78.7717+214.644C86.6654+208.985+110.356+206.317+103.327+204.332C90.8525+200.81+80.7052+215.132+70.7115+223.264C66.4085+226.766+40.3433+262.433+47.6958+265.026C59.201+269.085+107.596+237.279+108.237+225.688" fill="#000000" stroke-linecap="butt" opacity="1" stroke-linejoin="round"/>
<path stroke="#000000" stroke-width="1.51" d="M140.593+555.808C144.352+555.396+144.626+563.493+142.981+566.897C140.845+571.316+127.486+561.738+136.679+554.97C138.934+553.31+143.555+557.976+142.837+560.682C142.174+563.182+135.709+565.568+135.433+562.997C135.005+559.001+142.376+559.689+140.741+556.192C140.024+554.66+136.755+558.43+137.385+560C138.003+561.542+141.008+561.201+142.363+560.24C145.508+558.01+129.727+561.228+135.686+562.214C140.81+563.062+144.927+562.231+141.095+554.642C140.456+553.378+130.244+561.373+133.967+565.378C135.657+567.196+139.546+569.767+141.019+567.769" fill="#000000" stroke-linecap="butt" opacity="1" stroke-linejoin="round"/>
<path stroke="#000000" stroke-width="1.51" d="M98.7062+556.382C93.0273+561.93+84.705+564.388+76.9438+566.058C68.9465+567.779+85.7456+547.583+92+553.781C98.5135+560.236+83.5653+564.192+79.5762+564.159C68.2109+564.066+93.052+563.03+98.6271+557.618C101.892+554.448+80.982+557.414+78+561.932C74.5707+567.129+93.9004+559.904+92+555.552C88.9107+548.478+69.7966+565.324+76.3895+564.608" fill="#000000" stroke-linecap="butt" opacity="1" stroke-linejoin="round"/>
<path stroke="#000000" stroke-width="1.51" d="M108.433+580.354C111.157+577.49+114.016+574.569+117.513+572.724C120.062+571.379+111.857+585.563+109.517+581.586C104.576+573.187+127.497+572.761+112.773+577.707C111.167+578.247+111.639+577.275+108.234+578.979C107.313+579.44+116.85+576.941+117.642+575.593C119.239+572.876+110.075+576.735+109.15+579.748C108.68+581.275+122.71+573.111+118.487+573.943" fill="#000000" stroke-linecap="butt" opacity="1" stroke-linejoin="round"/>
<path stroke="#000000" stroke-width="1.51" d="M222.242+586.887C226.005+583.573+228.838+578.709+233.532+576.943C236.787+575.719+233.022+584.329+230.814+587.015C228.299+590.074+228.819+583.088+235.333+578.667L235.333+578.667C234.337+579.613+233.353+580.573+232.343+581.505C225.034+588.247+232.608+586.691+234.178+584.136C235.299+582.313+236.601+577.555+234.468+577.723C229.582+578.108+225.995+582.65+221.758+585.113" fill="#000000" stroke-linecap="butt" opacity="1" stroke-linejoin="round"/>
<path stroke="#000000" stroke-width="1.51" d="M265.073+567.956C283.119+557.641+269.952+571.81+269.131+571.984C268.579+572.1+267.734+572.45+267.439+571.97C264.589+567.321+263.468+565.609+265.594+567.377C268.878+570.11+266.756+566.814+267.227+570.697C267.52+573.112+277.324+566.667+273.775+566.015" fill="#000000" stroke-linecap="butt" opacity="1" stroke-linejoin="round"/>
<path stroke="#000000" stroke-width="1.51" d="M188.769+591.026C191.799+587.166+194.59+583.105+197.86+579.445C199.552+577.551+195.986+589.79+189.375+584.418C186.814+582.337+189.577+578.944+190.628+577.326C190.628+577.326+191.793+585.91+189.635+583.157C186.151+578.714+190.944+585.934+199.981+581.407" fill="#000000" stroke-linecap="butt" opacity="1" stroke-linejoin="round"/>
<path stroke="#000000" stroke-width="1.51" d="M241.568+492.349C247.591+488.579+250.871+482.468+250.667+484.254C249.381+495.479+241.636+485.942+241.099+491.651C240.962+493.101+235.388+492.794+236.803+492.449C240.371+491.578+243.575+489.604+246.943+488.138C248.266+487.562+251.743+485.764+250.335+485.447" fill="#000000" stroke-linecap="butt" opacity="1" stroke-linejoin="round"/>
<path stroke="#000000" stroke-width="1.51" d="M224.498+529.161C228.538+524.144+232.577+519.126+236.618+514.111C237.084+513.533+235.741+515.313+235.226+515.847C232.885+518.276+230.779+520.995+228.06+522.991C220.795+528.325+220.038+520.969+222.559+515.968C222.559+515.968+228.516+521.699+223.138+521.435C219.513+521.258+226.317+522.774+236.774+517.486C237.547+517.096+238.88+514.982+238.048+515.223" fill="#000000" stroke-linecap="butt" opacity="1" stroke-linejoin="round"/>
<path stroke="#000000" stroke-width="1.51" d="M210.163+508.755C204.854+509.962+199.561+513.51+194.237+512.375C191.301+511.749+206.915+494.902+207.584+499.666C208.109+503.411+200.621+516.364+195.85+512.625C192.722+510.173+195.78+502.367+199.456+502.912C203.287+503.48+198.515+509.714+195.333+507L195.333+506.333C195.691+506.869+198.215+505.857+199.014+505.653C203.148+504.594+194.588+506.408+194.817+510.042C194.978+512.601+209.061+501.989+206.872+500.823C203.004+498.761+193.289+509.981+193.763+510.292C197.882+512.989+203.59+510.927+208.504+511.245" fill="#000000" stroke-linecap="butt" opacity="1" stroke-linejoin="round"/>
<path stroke="#000000" stroke-width="1.51" d="M174.366+515.214C174.59+522.062+162.543+522.214+156.256+524.937C155.387+525.313+167.951+507.672+170.96+511.545C176.941+519.246+160.518+524.703+160.667+523.376C161.587+515.157+178.206+522.698+174.967+516.786C170.515+508.66+155.132+527.904+167.325+518.07C168.915+516.788+170.746+515.59+171.707+513.788C171.81+513.594+154.527+523.353+155.744+523.063" fill="#000000" stroke-linecap="butt" opacity="1" stroke-linejoin="round"/>
<path stroke="#000000" stroke-width="1.51" d="M130.365+485.926C126.896+488.083+123.34+490.105+119.957+492.393C116.861+494.487+126.328+488.484+129.501+486.51C129.796+486.326+131.153+483.519+130.302+487.407C128.804+494.25+134.624+483.394+129.165+484.157C125.166+484.716+117.377+486.462+118.71+490.273" fill="#000000" stroke-linecap="butt" opacity="1" stroke-linejoin="round"/>
<path stroke="#000000" stroke-width="1.51" d="M103.069+507.566C96.2683+507.393+89.3589+508.27+82.6667+507.048C81.5911+506.851+96.5876+494.411+97.6018+499.991C98.2553+503.587+92.0882+511.537+88.4382+509.315C86.0934+507.887+92.1388+499.33+92.3501+502.067C92.8151+508.092+87.4913+505.799+84.5399+503.904L84.7935+502.763C97.2426+511.468+89.3569+497.126+87.5618+506.685C86.9207+510.099+100.067+502.965+96.7831+501.831C94.7871+501.142+87.2232+501.83+85.6081+502.391C84.38+502.818+81.4732+504.437+82.6667+504.952C87.956+507.237+93.9539+507.273+99.5976+508.434" fill="#000000" stroke-linecap="butt" opacity="1" stroke-linejoin="round"/>
<path stroke="#000000" stroke-width="1.51" d="M263.333+446.215C255.633+448.477+248.17+451.809+240.234+453.002C239.023+453.184+240.537+450.397+241.385+449.513C243.945+446.84+247.073+444.759+250.13+442.673C251.402+441.804+256.916+439.963+258.667+440.915C265.853+444.826+243.741+460.65+242.525+457.823C237.597+446.357+262.058+445.201+242.75+449.029C242.278+449.123+241.836+449.335+241.38+449.487L241.287+449.179C243.419+447.74+244.506+446.84+247.8+446.532C258.057+445.572+243.097+453.655+241.475+455.511C238.562+458.842+260.514+445.26+258.667+443.085C254.902+438.652+239.339+450.986+239.766+450.998C247.664+451.224+255.478+449.301+263.333+448.452" fill="#000000" stroke-linecap="butt" opacity="1" stroke-linejoin="round"/>
<path stroke="#000000" stroke-width="1.51" d="M220.238+433.081C221.916+437.507+214.439+440.658+210.82+443.711C209.378+444.927+206.285+441.72+206.661+439.871C207.457+435.96+216.539+432.602+219.577+431.153C219.976+430.963+221.023+430.596+220.898+431.021C220.044+433.947+218.895+436.855+217.176+439.372C208.35+452.294+220.068+439.676+220.429+434.919C220.908+428.614+206.318+443.625+214.824+437.961C217.196+436.382+219.665+434.9+221.768+432.979C226.194+428.936+206.424+438.466+207.488+441.027" fill="#000000" stroke-linecap="butt" opacity="1" stroke-linejoin="round"/>
<path stroke="#000000" stroke-width="1.51" d="M252.19+431.531C249.273+430.577+256.758+427.431+259.119+425.471C259.911+424.813+252.237+426.806+252.477+429.802C252.717+432.799+263.741+425.601+260.881+426.529" fill="#000000" stroke-linecap="butt" opacity="1" stroke-linejoin="round"/>
<path stroke="#000000" stroke-width="1.51" d="M83.0399+479.554C78.6649+483.825+73.3932+487.286+67.808+489.774C67.1976+490.046+74.9958+476.47+79.0801+478.734C96.3243+488.291+57.932+493.472+76.0957+481.683C78.1264+480.365+78.2816+483.812+83.6268+481.113C85.5613+480.136+79.1974+481.392+77.2377+482.317C67.4548+486.936+81.4655+490.328+79.5866+481.266C78.7338+477.153+65.9253+487.694+66.8587+487.559" fill="#000000" stroke-linecap="butt" opacity="1" stroke-linejoin="round"/>
<path stroke="#000000" stroke-width="1.51" d="M136.836+426.5C144.486+443.722+125.464+441.007+122.585+437.812C116.456+431.012+138.752+421.318+141.488+422.216C147.768+424.278+136.091+437.623+131.767+437.17C125.466+436.508+135.756+429.435+137.164+426.833C141.65+418.545+128.926+432.511+129.566+434.83C130.833+439.423+137.521+429.554+141.203+426.53C141.835+426.01+142.833+425.204+142.512+424.45C141.977+423.197+120.274+432.147+122.748+435.521C123.6+436.683+139.544+436.867+140.138+435.195" fill="#000000" stroke-linecap="butt" opacity="1" stroke-linejoin="round"/>
<path stroke="#000000" stroke-width="1.51" d="M98.6655+418.824C101.58+422.88+90.2133+424.364+85.4658+425.916C82.9937+426.724+98.3381+415.848+96.833+419.669C96.3828+420.811+89.5192+434.037+84.2857+430.286C79.6599+426.97+98.9055+424.322+98.0012+419.843C96.4517+412.167+79.8302+421.128+83.7143+428.381C85.9871+432.625+93.0816+425.054+96.5003+421.665C97.1912+420.98+89.5453+420.709+89.4809+420.743C87.757+421.664+83.2573+424.956+85.2009+424.751" fill="#000000" stroke-linecap="butt" opacity="1" stroke-linejoin="round"/>
<path stroke="#000000" stroke-width="1.51" d="M91.0262+449.15C93.2616+447.107+109.708+434.745+101.805+445.76C97.8194+451.316+98.8569+439.056+106.498+432.515L106.835+432.818C104.497+435.571+104.128+435.941+101.492+439.517C100.742+440.534+99.9581+441.538+99.3527+442.647C95.4226+449.851+108.88+440.042+103.446+440.779C98.6656+441.429+94.6868+444.826+90.3071+446.85" fill="#000000" stroke-linecap="butt" opacity="1" stroke-linejoin="round"/>
<path stroke="#000000" stroke-width="1.51" d="M119.275+365.296C120.842+368.105+130.462+362.483+128.926+365.31C126.212+370.304+119.59+371.919+114.407+374.253C112.574+375.079+110.33+375.067+108.384+374.562C101.889+372.878+118.432+356.416+123.753+364.076C126.88+368.577+121.246+378.182+115.72+375.161C110.687+372.41+117.123+368.116+119.391+365.371C123.235+360.72+113.189+370.098+114.946+372.839C116.552+375.344+126.992+367.563+122.363+365.162C118.058+362.929+107.211+371.921+107.616+372.104C114.448+375.197+124.404+373.293+129.74+368.023" fill="#000000" stroke-linecap="butt" opacity="1" stroke-linejoin="round"/>
<path stroke="#000000" stroke-width="1.51" d="M123.209+330.644C116.545+334.742+110.344+339.711+103.218+342.94C101.215+343.848+107.615+324.838+113.739+329.364C121.027+334.749+106.385+345.871+104.501+343.504C100.703+338.731+110.264+331.128+111.61+334.39C115.568+343.983+94.8281+346.389+106.426+333.246L106.908+333.421C105.34+335.452+101.894+339.91+104.342+340.678C106.942+341.494+113.437+335.361+110.72+335.567C108.514+335.735+103.909+341.575+104.34+341.453C106.728+340.78+114.535+335.102+114.261+331.97C113.91+327.976+97.2685+342.291+102.116+341.06C109.042+339.301+115.455+335.924+122.124+333.356" fill="#000000" stroke-linecap="butt" opacity="1" stroke-linejoin="round"/>
<path stroke="#000000" stroke-width="1.51" d="M87.2241+352.695C88.1932+358.569+80.1841+362.483+75.5311+366.198C73.696+367.663+73.5276+361.393+74.4558+359.236C75.2436+357.405+85.7328+351.456+85.4234+355.532C85.04+360.58+71.1317+368.546+70.5425+363.118C69.8204+356.466+86.4539+359.623+87.4426+353.972C88.1723+349.801+73.2835+356.771+70.7909+360.882C69.5534+362.923+86.1689+359.872+84.2065+356.572C81.1704+351.467+71.6542+365.637+73.8022+364.469" fill="#000000" stroke-linecap="butt" opacity="1" stroke-linejoin="round"/>
<path stroke="#000000" stroke-width="1.51" d="M203.563+377.05C205.23+376.821+199.734+371.972+201.322+372.527C206.229+374.241+199.455+380.735+199.333+380.33C198.341+377.009+207.049+368.837+204.846+371.512C203.077+373.659+195.906+376.725+196.924+374.136C197.806+371.893+211.723+366.273+211.886+370.894C212.203+379.843+193.838+388.623+192.726+378.042C191.988+371.025+212.366+366.784+212.667+368.043C214.234+374.621+207.536+376.76+202.156+380.265C200.467+381.365+202.894+374.744+202.437+376.283C202.166+377.198+199.708+378.917+200.511+378.402C203.89+376.232+206.637+373.169+210.02+371.005C210.757+370.533+213.193+369.861+212.325+369.75C209.093+369.334+194.64+372.289+193.941+376.624C192.335+386.585+214.974+374.103+210.88+370.925C208.935+369.415+197.589+372.402+197.462+374.82C197.31+377.708+203.129+373.546+205.821+372.488C208.97+371.25+199.913+376.419+198.456+379.474C197.158+382.196+203.045+374.466+202.678+371.473" fill="#000000" stroke-linecap="butt" opacity="1" stroke-linejoin="round"/>
<path stroke="#000000" stroke-width="1.51" d="M260.443+360.428C264.799+360.629+251.924+362.594+247.565+362.729C244.494+362.823+252.882+357.293+255.728+358.45C266.842+362.97+256.903+371.285+251.344+373.054C245.039+375.06+262.633+360.371+258.89+361.572C238.604+368.079+256.271+376.743+259.249+367.169C261.206+360.877+254.488+358.83+250.667+359.27C249.313+359.426+245.789+360.904+247.102+361.271" fill="#000000" stroke-linecap="butt" opacity="1" stroke-linejoin="round"/>
<path stroke="#000000" stroke-width="1.51" d="M231.579+386.282C229.246+384.589+230.507+380.448+231.174+377.643C232.633+371.502+245.071+386.571+234.936+386.113C232.932+386.023+230.774+384.725+229.806+382.968C228.5+380.597+236.339+376.74+238.667+377.621C244.432+379.801+233.335+388.09+226.6+383.668C221.069+380.036+248.443+368.22+241.865+380.2C241.081+381.627+239.61+382.624+238.184+383.411C236.083+384.572+233.654+369.17+231.087+385.052C230.893+386.253+243.271+377.271+241.522+376.942C239.84+376.625+225.57+380.628+226.733+381.666C230.179+384.739+240.44+381.005+238.667+379.713C237.428+378.81+230.321+379.958+230.194+381.032C229.543+386.532+235.684+384.6+236.372+381.975" fill="#000000" stroke-linecap="butt" opacity="1" stroke-linejoin="round"/>
<path stroke="#000000" stroke-width="1.51" d="M277.713+295.046C274.666+313.955+271.787+290.681+274.23+293.042C276.642+295.373+280.761+297.481+280.601+300.832C280.566+301.579+265.261+320.047+262.32+314.732C259.122+308.953+265.052+301.689+267.398+297.774C269.057+295.006+272.407+287.298+273.565+290.311C274.453+292.623+276.491+312.48+268.538+305.505L268.795+305.162C274.053+311.536+274.551+292.067+274.435+291.023C274.094+287.952+270.228+295.599+268.602+298.226C267.728+299.637+260.82+309.549+261.68+313.268C261.915+314.288+263.845+313.789+264.819+313.404C268.084+312.114+278.714+305.153+279.399+301.834C280.023+298.81+276.797+296.207+275.103+293.625C273.727+291.525+270.831+312.264+278.287+295.621" fill="#000000" stroke-linecap="butt" opacity="1" stroke-linejoin="round"/>
<path stroke="#000000" stroke-width="1.51" d="M222.045+298.64C226.039+303.512+217.393+310.462+213.844+315.667C212.621+317.461+216.893+296.836+221.65+300.633C226.211+304.273+220.409+318.235+214.642+317.389C207.622+316.36+208.628+301.408+216.348+302.156C224.927+302.988+221.177+318.575+216.575+316.196C207.48+311.493+226.072+303.775+221.955+299.36C217.034+294.082+210.985+307.494+215.425+314.471C218.018+318.546+223.89+298.031+213.886+303.534C208.514+306.49+212.169+324.035+219.067+311.147C220.098+309.222+221.19+307.31+221.93+305.256C222.297+304.237+222.74+303.044+222.35+302.034C220.36+296.873+211.901+316.043+212.823+315" fill="#000000" stroke-linecap="butt" opacity="1" stroke-linejoin="round"/>
<path stroke="#000000" stroke-width="1.51" d="M259.216+287.835C253.494+287.656+247.636+288.55+242.05+287.297C240.955+287.051+241.462+284.997+241.831+283.937C244.478+276.341+250.264+279.783+253.437+284.673C255.394+287.69+249.098+289.163+248.668+281.417C248.604+280.275+249.417+278.067+251.333+279.699C257.101+284.61+243.48+295.806+239.556+286.622C237.946+282.855+246.24+276.894+249.121+279.046C255.92+284.124+247.592+290.656+241.238+284.134L241.429+283.866C244.591+286.934+253.82+287.502+249.545+280.954C248.146+278.81+236.54+283.604+241.148+287.862C245.395+291.787+253.631+282.608+250.78+280.39C250.314+280.027+249.542+285.847+251.766+287.333C254.289+289.02+248.678+278.957+245.964+280.315C243.88+281.358+239.744+285.285+241.95+286.036C247.095+287.79+252.728+287.455+258.118+288.165" fill="#000000" stroke-linecap="butt" opacity="1" stroke-linejoin="round"/>
<path stroke="#000000" stroke-width="1.51" d="M194.319+306.276C193.476+310.545+192.406+315.43+189.076+318.231C187.755+319.343+178.259+304.93+189.233+304.4C201.646+303.8+192.91+321.64+190.353+319.862C188.496+318.572+187.541+309.925+190.246+309.165C196.748+307.339+188.461+318.47+189.854+314.292C190.821+311.39+196.657+302.761+194.348+306.39C190.532+312.386+187.111+314.194+189.647+318.804C189.801+319.084+201.444+305.55+189.433+304.934C182.034+304.554+183.342+321.295+188.257+317.769" fill="#000000" stroke-linecap="butt" opacity="1" stroke-linejoin="round"/>
<path stroke="#000000" stroke-width="1.51" d="M157.273+286.893C159.737+285.332+162.699+291.623+161.781+294.391C160.997+296.756+156.848+296.018+154.398+295.563C147.832+294.346+149.79+281.037+156.419+282.349C162.213+283.495+167.004+291.094+162.315+296.151C154.216+304.887+146.385+290.519+152.284+283.251C156.221+278.401+157.31+290.598+156.398+292.667C155.467+294.781+160.162+287.823+157.393+287.107C155+286.488+152.164+293.254+154.536+293.951C155.07+294.108+155.44+293.199+155.602+292.667C155.876+291.762+156.502+279.622+153.049+283.415C148.146+288.801+152.093+301.581+160.352+295.849C166.734+291.419+160.262+279.603+153.074+284.741C145.147+290.407+158.485+300.007+160.885+294.942" fill="#000000" stroke-linecap="butt" opacity="1" stroke-linejoin="round"/>
<path stroke="#000000" stroke-width="2.18" d="M103.667+283C108.229+279.496+115.713+277.424+120.709+280.277C124.713+282.563+110.048+300.173+104.05+295.831C98.9101+292.11+100.987+273.728+109.166+275.119C112.483+275.682+116.053+284.236+115.402+287.123C114.132+292.76+100.474+290.002+102.918+283.541C106.408+274.313+111.665+294.163+108.027+290.018C106.21+287.948+108.316+279.72+103.667+283C101.432+284.576+106.343+287.787+107.973+289.982C108+290.019+109.995+282.726+105.039+282.853C103.876+282.883+102.804+283.19+103.606+284.924C104.523+286.906+112.451+291.644+113.931+287.544C114.836+285.037+112.645+276.281+109.5+275.548C102.184+273.843+99.8063+291.345+103.95+294.836C106.466+296.956+114.777+292.237+115.669+291.102C117.976+288.167+123.719+283.146+120.625+281.057" fill="#000000" stroke-linecap="butt" opacity="1" stroke-linejoin="round"/>
<path stroke="#000000" stroke-width="2.18" d="M205.015+244.727C208.59+246.837+217.266+238.55+217.3+242.7C217.344+248.204+209.168+250.396+205.923+245.671C204.702+243.893+213.022+239.206+214.508+243.82C216.053+248.614+207.312+247.892+205.651+244.606C200.569+234.548+207.541+251.768+213.492+245.514C214.544+244.407+205.755+241.149+206.077+243.662C206.972+250.633+216.722+245.367+216.537+242.732" fill="#000000" stroke-linecap="butt" opacity="1" stroke-linejoin="round"/>
<path stroke="#000000" stroke-width="2.18" d="M158.285+234.8C162.314+235.107+159.08+242.959+158.297+246.924C158.24+247.215+151.74+242.2+153.616+239.45C156.869+234.682+168.848+239.06+165.968+241.737C158.01+249.136+160.412+239.66+159.049+236.534C158.081+234.316+151.041+235.612+151.914+237.868C153.776+242.684+165.649+243.763+164.995+242.135C162.595+236.165+153.773+238.04+154.598+244.647C154.701+245.474+155.969+247.14+156.369+246.41" fill="#000000" stroke-linecap="butt" opacity="1" stroke-linejoin="round"/>
<path stroke="#000000" stroke-width="2.18" d="M188.133+222.91C191.353+223.044+194.965+218.972+196.639+223.883C197.582+226.647+191.047+233.701+191.248+230.788C191.478+227.461+197.179+212.8+199.225+221.658C201.823+232.909+190.827+223.785+187.812+221.418C187.412+221.103+201.073+225.192+187.867+221.756C181.619+220.131+187.539+222.411+195.032+226.258C196.713+227.121+200.504+223.982+199.3+222.525C197.443+220.278+186.897+228.155+190.156+228.324" fill="#000000" stroke-linecap="butt" opacity="1" stroke-linejoin="round"/>
<path stroke="#000000" stroke-width="2.18" d="M149.633+221.445C151.69+218.63+150.844+231.084+147.406+231.666C144.705+232.123+143.132+228.752+143.979+226.172C145.487+221.578+156.754+216.866+154.973+224.414C153.354+231.277+151.12+219.028+149.701+221.889C143.51+234.363+156.239+223.423+155.001+222.835C137.933+214.735+147.635+236.609+149.763+231.469" fill="#000000" stroke-linecap="butt" opacity="1" stroke-linejoin="round"/>
<path stroke="#000000" stroke-width="2.18" d="M95.4722+219.896C97.3886+216.825+93.2044+227.461+90.1097+229.34C86.2843+231.661+89.1684+220.439+88.6015+216C88.5733+215.78+88.3887+215.237+88.5891+215.333C104.954+223.2+98.2643+218.332+95.8611+220.771C87.5836+229.172+92.1189+222.867+95.7536+226.913C96.23+227.444+94.5175+226.105+94.1562+225.491C91.9903+221.806+89.6134+219.675+90.0776+215.333C90.2091+214.104+88.2359+228.046+88.5569+227.994" fill="#000000" stroke-linecap="butt" opacity="1" stroke-linejoin="round"/>
<path stroke="#000000" stroke-width="2.18" d="M72.4356+233.091C76.0922+234.985+73.231+241.565+71.8067+245.428C69.531+251.601+62.2353+242.034+65.1552+240.772C68.0129+239.537+71.4057+238.475+74.3882+239.367C74.5284+239.409+69.0609+247.878+67.9454+245.789C65.8312+241.829+73.0318+237.62+72.8977+233.575C72.8531+232.231+69.901+234.028+69.1928+235.171C67.6602+237.645+66.3135+240.663+66.7212+243.544C67.3883+248.259+75.721+242.915+74.9451+241.966C73.2107+239.844+69.5851+240.585+66.8448+240.561C63.2352+240.529+66.5476+250.259+69.5266+245.238" fill="#000000" stroke-linecap="butt" opacity="1" stroke-linejoin="round"/>
<path stroke="#000000" stroke-width="2.18" d="M146.25+179.874C144.644+183.234+142.758+186.531+140.312+189.34C139.138+190.689+139.446+184.846+141.034+184.023C142.399+183.316+144.88+188.733+144.244+187.333C143.674+186.077+142.824+184.666+143.182+183.333C143.582+181.845+143.893+183.365+146.417+180.793C148.471+178.7+143.026+187.414+143.088+187.227C145.611+179.593+136.524+188.921+138.354+187.993" fill="#000000" stroke-linecap="butt" opacity="1" stroke-linejoin="round"/>
<path stroke="#000000" stroke-width="2.18" d="M174.416+173.105C174.009+173.603+180.258+166.216+182.885+169.603C184.012+171.056+183.452+181.504+179.517+180.183C167.279+176.077+172.358+174.785+174.251+172.228C182.045+161.699+175.221+171.074+177.817+178.483C178.056+179.166+184.027+173.102+183.781+171.731" fill="#000000" stroke-linecap="butt" opacity="1" stroke-linejoin="round"/>
<path stroke="#000000" stroke-width="2.18" d="M168.36+194.424C166.532+192.308+168.934+188.652+170.44+186.294C171.122+185.226+173.952+191.688+172.44+191.333C170.561+190.893+168.958+189.204+168.141+187.455C167.314+185.685+173.963+187.937+173.499+189.835C172.952+192.065+165.078+194.3+167.64+193.576C176.471+191.078+169.83+184.513+169.192+185.878C168.361+187.657+172.301+192.039+173.13+190.26C173.601+189.249+173.181+186.463+172.227+187.039" fill="#000000" stroke-linecap="butt" opacity="1" stroke-linejoin="round"/>
<path stroke="#000000" stroke-width="2.18" d="M127.181+177.145C130.375+174.216+129.498+185.835+128.58+190.069C128.173+191.946+126.37+186.92+125.424+185.249C124.52+183.653+122.678+181.474+123.77+180C125.595+177.537+131.508+178.819+129.899+182.717C129.245+184.301+127.612+181.68+128.152+177.522C128.18+177.308+119.263+187.673+127.435+183.949C129.733+182.902+127.888+178.662+125.563+180C122.69+181.653+124.287+192.715+126.087+189.931" fill="#000000" stroke-linecap="butt" opacity="1" stroke-linejoin="round"/>
<path stroke="#000000" stroke-width="2.18" d="M254.985+182.329C255.636+181.437+240.549+177.036+244.946+171.1C246.869+168.503+254.303+177.222+254.434+177.786C256.749+187.822+241.108+172.199+245.735+172.186C257.639+172.153+255.851+177.616+254.349+182.337C251.948+189.879+252.22+178.004+247.598+171.814C247.454+171.621+253.278+184.486+252.233+179.547C252.194+179.362+246.906+169.792+245.721+170.234" fill="#000000" stroke-linecap="butt" opacity="1" stroke-linejoin="round"/>
<path stroke="#000000" stroke-width="2.18" d="M281.589+207.748C278.793+208.455+276.071+210.161+273.202+209.869C260.923+208.617+284.725+204.375+276.535+209.333C272.732+211.636+271.517+205.661+270.127+203.67C270.078+203.6+265.731+200.533+266.796+199.692C275.731+192.633+284.367+200.336+276.912+210.228C273.109+215.274+269.658+199.249+269.315+198.006L269.352+197.994C270.145+199.483+273.249+211.904+275.088+209.772C281.71+202.095+276.757+195.879+267.871+198.975C267.485+199.109+267.489+199.849+267.714+200.191C269.846+203.43+273.334+204.852+274.132+209.333C274.223+209.848+271.891+203.602+271.481+205.312C269.998+211.485+276.548+208.481+279.744+208.252" fill="#000000" stroke-linecap="butt" opacity="1" stroke-linejoin="round"/>
<path stroke="#000000" stroke-width="2.18" d="M295.212+234.045C297.817+230.012+292.383+224.858+290.597+220.402C290.001+218.915+290.907+223.664+291.626+225.095C294.201+230.223+297.881+230.615+294.121+233.288C290.576+235.808+294.01+228.999+293.708+224.238C293.604+222.601+291.995+217.96+292.07+219.598" fill="#000000" stroke-linecap="butt" opacity="1" stroke-linejoin="round"/>
<path stroke="#000000" stroke-width="2.18" d="M272.727+233.473C273.966+234.39+275.205+235.306+276.444+236.222L276.889+238.444C275.906+236.694+274.923+234.944+273.94+233.193" fill="#000000" stroke-linecap="butt" opacity="1" stroke-linejoin="round"/>
<path stroke="#000000" stroke-width="2.18" d="M269.825+215.684C266.74+206.891+260.018+197.678+262.515+188.7L262.818+188.633C261.728+197.929+265.608+207.152+267.508+216.316" fill="#000000" stroke-linecap="butt" opacity="1" stroke-linejoin="round"/>
</g>
</svg>
