<?xml version="1.0" encoding="UTF-8" standalone="no"?> <!-- Created with Vectornator for iOS (http://vectornator.io/) --><!DOCTYPE svg PUBLIC "-//W3C//DTD SVG 1.1//EN" "http://www.w3.org/Graphics/SVG/1.1/DTD/svg11.dtd">
<svg style="fill-rule:evenodd;clip-rule:evenodd;stroke-linecap:round;stroke-linejoin:round;" xmlns:vectornator="http://vectornator.io" xmlns:xlink="http://www.w3.org/1999/xlink" xmlns="http://www.w3.org/2000/svg" xml:space="preserve" version="1.1" viewBox="0 0 1024 1024">
<metadata>
<vectornator:setting key="DisplayWhiteBackground" value="0"/>
<vectornator:setting key="RulersVisible" value="1"/>
<vectornator:setting key="SnapToEdges" value="0"/>
<vectornator:setting key="Units" value="Pixels"/>
<vectornator:setting key="DynamicGuides" value="0"/>
<vectornator:setting key="SnapToPoints" value="0"/>
<vectornator:setting key="SnapToGrid" value="0"/>
<vectornator:setting key="SnapToGuides" value="1"/>
<vectornator:setting key="ShowGrid" value="1"/>
<vectornator:setting key="GridSpacing" value="36"/>
</metadata>
<defs/>
<g id="Layer 1" vectornator:layerName="Layer 1">
<path stroke="#000000" stroke-width="2.97" d="M479.494+222.081C475.777+229.494+502.411+224.58+510.667+225.598C526.388+227.538+543.056+231.192+558.336+235.322C604.062+247.682+658.345+278.424+687.889+316.285C732.406+373.333+745.909+466.029+745.794+537.333C745.751+563.839+744.625+593.253+734.346+617.933C731.154+625.598+724.6+632.687+720.181+639.676C716.155+646.041+713.545+653.078+709.734+659.534C704.456+668.475+693.723+675.617+685.938+682.192C680.171+687.061+676.393+694.323+670.079+698.902C628.843+728.806+578.799+749.584+527.004+752.533C476.514+755.408+427.653+751.818+379.814+735.892C282.401+703.463+211.507+579.089+229.442+479.101C237.003+436.947+257.163+398.954+277.17+361.981C285.931+345.79+292.272+329.313+304.104+314.96C320.835+294.664+346.731+285.213+366.012+268.552C375.701+260.179+390.475+254.33+402.555+250.331C417.287+245.454+428.399+233.966+443.816+229.873C446.871+229.062+477.576+226.692+480.506+223.252C484.855+218.146+472.822+223.58+471.247+224.537C463+229.545+452.583+231.173+443.413+234.907C429.928+240.397+417.776+250.415+404.112+255.002C392.193+259.003+378.244+264.618+368.655+272.781C347.974+290.386+318.021+300.865+302.282+324.474C293.875+337.084+288.733+351.517+281.497+364.686C261.613+400.872+242.172+438.239+234.558+479.566C216.315+578.585+285.29+698.658+381.52+730.774C428.542+746.468+476.675+749.859+526.329+747.467C577.044+745.023+626.662+724.283+667.255+695.764C673.654+691.268+677.534+683.962+683.396+679.141C690.891+672.977+701.11+666.248+706.266+657.799C710.247+651.274+712.955+644.082+717.153+637.657C721.519+630.975+727.889+624.166+730.987+616.733C752.508+565.11+743.729+478.932+729.738+426.399C718.277+383.366+710.324+341.952+677.612+309.217C645.766+277.348+601.094+249.963+557.664+238.011C538.779+232.814+519.354+228.89+499.883+226.935" fill="#000000" stroke-linecap="butt" opacity="1" stroke-linejoin="round"/>
<path stroke="#000000" stroke-width="6.94" d="M339.414+576.44C348.31+577.859+356.356+583.865+362.55+590.405C370.498+598.795+344.816+615.535+334.471+615.386C296.103+614.833+325.55+556.58+349.952+575.937C360.288+584.136+346.364+612.855+329.038+604.061C314.834+596.853+318.974+572.634+335.714+573.143C343.361+573.375+350.151+583.714+347.991+590.845C343.869+604.453+323.701+593.695+327.201+588.667C328.86+586.284+331.21+584.027+334+583.224C335.844+582.693+337.585+584.607+339.427+585.146C344.776+586.711+337.699+591.737+337.109+586.349C336.74+582.978+351.284+583.59+343.92+579.56C339.905+577.363+341.305+596.976+335.365+597.11C331.15+597.206+339.677+589.295+336.038+585.436C334.438+583.739+329.549+591.585+333.342+591.822C334.74+591.909+339.903+584.658+338.952+582.857C335.286+575.912+318.111+591.07+331.7+596.883C336.75+599.043+354.292+587.478+341.592+580.532C333.012+575.84+314.971+597.022+325.333+604.662C329.158+607.483+356.578+603.695+356.116+601.595" fill="#000000" stroke-linecap="butt" opacity="1" stroke-linejoin="round"/>
<path stroke="#000000" stroke-width="6.94" d="M515.978+518.164C502.262+510.678+473.145+500.611+481.563+491.632C483.997+489.036+500.876+486.145+502.715+485.873C517.701+483.657+528.223+486.354+523.292+505.208C518.236+524.538+487.982+523.869+483.835+504.186C479.742+484.753+524.32+466.259+527.638+488.658C532.511+521.562+489.957+523.457+487.715+494.542C486.006+472.514+523.574+505.347+514.662+510.667C500.283+519.249+479.875+510.547+493.015+495.099C512.286+472.441+530.399+509.169+513.269+514.968C496.469+520.656+494.223+504.648+492.56+492.773C492.176+490.032+493.067+486.59+495.28+484.928C501.915+479.948+509.974+492.9+503.889+497.01L500.111+496.323C503.126+499.131+504.14+488.456+503.386+484.405C503.133+483.043+503.573+487.182+503.44+488.561C503.148+491.597+502.843+494.653+502.114+497.615C501.267+501.058+498.332+504.176+498.731+507.699C498.905+509.243+501.97+509.165+503.336+508.424C508.398+505.679+515.24+488.222+501.652+494.235C498.139+495.789+500.472+499.544+500.825+501.525C501.374+504.607+498.175+507.576+498.672+510.667C498.882+511.973+501.436+513.436+502.247+512.39C503.166+511.205+499.299+489.568+497.82+487.598C497.111+486.653+496.107+489.624+496.285+490.792C496.63+493.053+498.549+494.803+499.25+496.981C500.35+500.398+499.985+504.802+502.659+507.197C511.032+514.699+527.181+486.725+519.792+483.417C513.026+480.388+495.413+489.814+492.654+492.192C488.1+496.117+491.958+502.784+493.143+506.532C493.269+506.931+492.964+507.602+493.347+507.771C500.137+510.775+521.1+505.215+518.448+495.04C516.655+488.165+496.823+494.179+493.402+494.371C490.423+494.538+482.189+491.709+484.484+493.615C492.972+500.663+501.954+507.096+510.689+513.836" fill="#000000" stroke-linecap="butt" opacity="1" stroke-linejoin="round"/>
<path stroke="#000000" stroke-width="6.94" d="M414.34+376.896C416.8+386.7+422.558+396.233+421.721+406.306C420.962+415.445+399.251+419.916+394.578+419.2C383.892+417.563+371.535+403.621+370.184+392.99C367.26+369.979+412.809+369.486+415.381+390.279C418.172+412.855+377.31+411.653+380.541+388.018C385.263+353.477+423.523+385.807+414.591+400.413C407.497+412.014+396.275+408.449+388.711+399.926C384.742+395.453+384.055+388.906+381.512+383.494C381.007+382.418+378.683+379.72+379.582+380.497C388.358+388.078+388.973+387.607+390.248+397.572C390.358+398.437+390.694+400.471+389.878+400.163C384.443+398.107+379.182+395.314+374.653+391.674C373.474+390.726+374.069+388.706+373.777+387.222L383.557+384.778C384.679+390.215+377.458+394.066+374.122+398.504C373.582+399.222+376.182+397.961+376.419+397.095C377.599+392.779+375.973+387.696+378.146+383.785C380.283+379.94+384.384+377.256+388.418+375.503C398.597+371.078+390.542+399.631+397.409+402.254C402.244+404.101+406.887+373.739+393.882+379.655C378.294+386.747+400.574+399.895+403.286+397.721C412.661+390.206+376.962+375.861+377.816+388.344C378.3+395.422+402.261+422.594+408.946+411.027C413.711+402.781+412.977+392.412+414.993+383.104" fill="#000000" stroke-linecap="butt" opacity="1" stroke-linejoin="round"/>
<path stroke="#000000" stroke-width="6.94" d="M582.654+315.295C584.283+325.042+590.872+335.233+587.54+344.536C585.465+350.328+576.207+350.207+570.059+350.462C554+351.127+540.918+340.792+538.275+325.333C535.567+309.499+557.239+286.115+572.41+301.025C582.821+311.256+585.142+340.596+562.691+337.383C537.229+333.738+547.059+298.439+572.257+305.083C587.167+309.015+586.305+342.622+560.842+339.752C545.011+337.968+532.457+311.219+551.978+305.613C563.117+302.414+569.273+320.347+559.907+325.963L553.426+323.37C558.481+328.347+555.861+311.731+553.859+308.357C552.492+306.053+553.615+314.03+555.024+316.309C557.781+320.769+557.474+327.021+561.083+330.824C563.495+333.365+579.614+312.488+568.059+311.744C545.99+310.324+561.53+338.751+568.979+325.647C580.462+305.448+552.793+293.127+544.722+314.125C541.469+322.585+553.872+342.541+560.607+345.538C565.844+347.869+574.446+350.784+577.793+346.131C583.562+338.11+580.162+326.513+581.346+316.705" fill="#000000" stroke-linecap="butt" opacity="1" stroke-linejoin="round"/>
<path stroke="#000000" stroke-width="6.94" d="M456.667+263.121C459.451+270.774+464.756+277.94+465.021+286.079C465.276+293.935+416.358+295.392+414.91+286.099C410.083+255.118+447.375+246.693+460.865+273.296C466.179+283.774+446.692+301.084+436.07+296.262C427.924+292.564+420.351+280.912+418.94+271.884C417.927+265.401+428.458+261.756+431.657+260.97C450.705+256.288+461.597+282.208+450.218+286.721C445.056+288.769+439.112+286+433.645+285.025C432.27+284.78+431.162+283.743+429.921+283.101L430.079+282.232C432.41+282.82+437.321+284.154+439.115+283.945C458.83+281.657+428.126+264.476+427.726+266.782C425.402+280.191+437.831+287+448.954+283.828C450.328+283.436+452.554+282.798+452.468+281.371C450.895+255.284+427.401+263.749+418.423+277.901C417.238+279.77+431.881+281.935+432.787+282.291C445.826+287.419+454.443+294.185+456.313+289.921C459.129+283.496+456.549+275.893+456.667+268.879" fill="#000000" stroke-linecap="butt" opacity="1" stroke-linejoin="round"/>
<path stroke="#000000" stroke-width="6.94" d="M313.576+464.147C310.225+476.533+307.991+510.482+283.226+501.512C279.163+500.04+276.417+496.008+273.942+492.466C256.75+467.854+298.433+451.007+311.12+462.797C332.392+482.565+299.536+510.641+280.457+493.913C277.818+491.599+275.816+488.47+274.546+485.197C267.579+467.25+285.015+455.991+298.743+469.108C301.493+471.735+307.108+476.33+304.41+479.01C286.428+496.875+284.167+481.389+282.465+465.827C282.072+462.231+288.378+470.187+290.514+473.106C295.177+479.475+293.813+484.616+287.22+486.147L284.78+484.52C282.178+491.838+285.588+457.367+290.868+462.173C298.914+469.497+292+475.674+288.923+483.656C288.664+484.329+292.479+467.73+285.769+469.472C281.336+470.623+281.848+479.317+283.543+482.087C292.641+496.954+315.204+475.678+305.434+469.529C289.446+459.465+264.849+475.697+282.108+491.822C284.973+494.499+291.924+495.366+295.156+492.905C302.72+487.147+308.891+479.759+315.758+473.187" fill="#000000" stroke-linecap="butt" opacity="1" stroke-linejoin="round"/>
<path stroke="#000000" stroke-width="6.94" d="M491.147+655.447C485.822+668.816+483.947+684.148+475.171+695.553C472.359+699.207+465.511+696.203+461.417+694.083C456.574+691.576+452.669+687.162+449.896+682.466C442.491+669.932+454.324+631.892+473.136+647.173C475.937+649.449+477.951+652.822+478.999+656.275C492.738+701.559+448.03+677.186+456.091+655.895C463.218+637.071+492.594+658.7+484.161+676.936C475.332+696.027+438.209+688.791+441.234+665.969C441.923+660.771+444.888+655.046+449.527+652.602C467.105+643.344+490.817+674.734+470.088+680.969L468.578+680.365C475.414+683.214+463.587+638.58+449.433+660.698C441.4+673.25+463.151+682.78+471.839+677.731C483.903+670.72+470.486+646.104+463.909+653.438C461.457+656.172+463.395+678.078+466.637+677.927C471.941+677.679+472.994+654.6+469.044+651.674C456.536+642.408+452.161+682.715+454.583+687.25C456.492+690.822+461.557+696.167+464.829+693.78C475.078+686.302+479.956+673.407+487.52+663.22" fill="#000000" stroke-linecap="butt" opacity="1" stroke-linejoin="round"/>
<path stroke="#000000" stroke-width="6.94" d="M608.541+627.855C604.914+637.698+601.91+647.792+597.662+657.383C595.481+662.305+588.437+663.473+583.145+664.468C571.779+666.605+560.528+659.326+558.333+647.917C551.029+609.954+613.705+603.568+611.72+641.782C611.005+655.548+594.406+663.565+582.867+656.514C570.447+648.924+571.338+615.289+585.126+620.597C589.884+622.429+593.852+626.293+596.854+630.413C609.689+648.026+572.281+658.969+573.418+635.25C573.641+630.609+576.091+626.34+577.767+622.006C578.127+621.075+578.915+620.372+579.489+619.555L585.844+621.779C583.857+625.036+584.199+629.295+582.582+632.75C579.435+639.474+579.098+632.083+584.417+636.038C585.693+636.986+583.181+645.578+583.906+643.359C585.383+638.835+593.534+630.19+589.183+625.045C586.454+621.816+579.795+650.453+592.291+651.258C594.825+651.422+597.824+649.829+598.947+647.551C609.406+626.328+570.709+615.082+567.001+641.416C566.241+646.813+567.355+650.151+572.238+652.432C587.281+659.456+592.494+648.011+602.126+637.478" fill="#000000" stroke-linecap="butt" opacity="1" stroke-linejoin="round"/>
<path stroke="#000000" stroke-width="6.94" d="M674.78+485.568C676.582+490.903+682.827+496.599+680.187+501.573C675.318+510.749+664.592+515.409+655.913+521.12C650.315+524.804+643.471+521.058+639.536+517.153C620.739+498.502+655.554+465.59+670.024+488.086C687.525+515.296+643.612+528.988+640.318+491.006C640.047+487.886+639.168+478.804+643.065+475.46C652.127+467.685+655.004+486.203+655.909+490.403C656.479+493.048+657.686+495.523+658.326+498.152C658.601+499.282+659.657+502.192+658.641+501.627C654.923+499.557+650.401+497.134+649.177+493.059C648.305+490.156+652.015+487.691+653.697+485.17C661.436+473.569+667.178+497.829+654.3+500.64L651.033+498.026C648.763+489.589+675.688+480.923+658.823+496.274C655.477+499.321+651.087+501.292+646.693+502.373C645.654+502.629+646.861+500.24+647.008+499.181C647.333+496.83+651.343+477.478+650.268+476.54C647.457+474.088+648.875+483.933+649.016+487.661C649.277+494.575+647.984+495.894+652.442+501.398C661.661+512.781+670.007+498.985+663.333+490.832C652.384+477.455+635.142+504.697+644.768+514.953C645.868+516.124+647.903+516.741+649.42+516.214C657.671+513.347+666.73+511.02+673.146+505.094C676.478+502.016+674.973+496.208+675.887+491.765" fill="#000000" stroke-linecap="butt" opacity="1" stroke-linejoin="round"/>
<path stroke="#000000" stroke-width="6.94" d="M710.741+355.315C710.815+362.394+712.309+369.998+709.585+376.73C694.548+413.889+652.999+368.972+665.671+346.167C678.554+322.982+718.407+344.917+703.636+369.212C687.197+396.249+663.721+353.688+679.298+343.035C686.814+337.894+701.131+357.667+698.254+363.603C695.658+368.963+691.067+368.127+686.336+365.992C675.615+361.156+681.228+347.961+688.17+354.994L686.497+358.339C687.331+357.163+685.124+355.803+684.473+354.516C683.544+352.678+687.407+357.501+688.331+359.341C689.423+361.517+687.177+363.752+689.746+365.73C693.486+368.612+686.379+345.187+684.702+344.965C675.749+343.778+685.718+390.954+698.173+364.348C708.142+343.053+660.943+327.263+673.519+364.192C674.371+366.694+677.347+375.275+679.013+378.641C680.763+382.176+688.837+382.123+691.333+382.339C706.304+383.636+705.116+369.309+705.259+356.685" fill="#000000" stroke-linecap="butt" opacity="1" stroke-linejoin="round"/>
<path stroke="#000000" stroke-width="6.94" d="M705.366+591.366C724.555+596.23+734.73+607.664+720.667+626.148C718.494+629.004+715.069+632.764+711.386+634.002C683.834+643.26+678.185+595.449+713.998+592.278C721.004+591.657+717.009+610.599+716.755+611.727C714.923+619.872+701.782+650.103+687.721+638.54C679.119+631.467+681.207+599.253+695.955+601.266C719.086+604.424+701.812+640.247+694.133+614.031C693.398+611.524+693.598+608.833+693.33+606.234L694.67+605.766C700.739+613.182+698.2+620.251+699.112+620C701.109+619.45+702.428+601.186+694.855+605.152C689.068+608.182+684.128+632.607+691.164+632.663C702.179+632.751+708.488+619.538+711.245+610.94C712.468+607.128+714.86+603.765+716.125+599.967C716.443+599.013+716.341+597.056+715.336+597.056C689.326+597.034+686.31+631.164+707.281+628.665C712.58+628.033+717.162+621.514+719.702+617.544C726.255+607.303+715.309+598.193+707.967+593.967" fill="#000000" stroke-linecap="butt" opacity="1" stroke-linejoin="round"/>
<path stroke="#000000" stroke-width="6.94" d="M547.776+737.798C548.013+734.938+543.937+733.504+541.746+731.649C537.019+727.647+526.411+753.524+525.366+738.689C524.795+730.579+548.626+732.99+552.005+734.657C554.306+735.792+560.209+740.702+557.872+739.641C552.164+737.048+554.962+742.296+549.036+742.68C545.148+742.931+541.223+742.718+537.333+742.639C534.416+742.58+530.914+744.228+532.577+746.622C533.106+747.383+533.169+744.708+532.814+743.853C531.565+740.841+529.117+742.67+534.741+740.816C539.368+739.291+541.85+743.333+541.85+743.333C546.924+749.265+524.985+747.275+527.308+743.769C531.923+736.806+559.53+732.821+555.333+743.598C554.881+744.76+546.178+737.457+545.623+737.275C537.962+734.762+530.814+742.785+524.127+741.73C524.012+741.712+525.597+739.894+531.27+733.937C536.474+728.472+541.8+728.304+549.266+729.07" fill="#000000" stroke-linecap="butt" opacity="1" stroke-linejoin="round"/>
<path stroke="#000000" stroke-width="6.94" d="M368.986+717.002C363.921+711.74+356.873+706.816+349.162+705.429C347.199+705.076+343.034+709.498+343.58+707.58C344.026+706.009+341.941+704.188+342.726+702.756C345.923+696.924+374.469+710.528+370.713+722C367.494+731.829+344.08+711.957+343.949+704.103L345.384+703.897C347.174+707.14+352.478+707.806+357.637+713.514C359.471+715.544+361.813+717.081+363.602+719.151C364.213+719.858+365.008+722.761+365.287+722C369.946+709.288+340.792+706.767+340.42+704.42C337.988+689.059+372.572+715.033+373.68+716.331" fill="#000000" stroke-linecap="butt" opacity="1" stroke-linejoin="round"/>
<path stroke="#000000" stroke-width="6.94" d="M269.02+541.647C268.077+545.766+265.152+568.34+253.333+564.395C241.251+560.362+239.345+524.464+258+530.472C271.524+534.827+269.274+562.141+254.594+561.153C242.699+560.352+232.388+531.174+248.105+527.543C265.674+523.484+269.092+558.445+250.494+560.149C238.06+561.288+229.745+534.995+242.284+531.046C255.907+526.756+274.725+543.404+263.931+556.351C252.031+570.626+231.147+564.44+233.847+545.333C234.904+537.854+242.28+539.535+246+535.333L246+535.333C245.496+541.898+236.382+558.059+247.164+557.827C267.922+557.381+252.321+531.383+244.791+533.954C239.652+535.708+244.445+552.111+248.172+553.184C256.785+555.664+258.872+531.987+250.562+532.457C248.716+532.562+245.653+531.94+245.163+533.723C243.906+538.29+249.751+558.174+256.698+554.673C269.14+548.402+258.472+529.589+248.467+538.173C245.075+541.084+254.141+571.097+261.329+556.932C263.24+553.166+264.208+548.991+265.647+545.02" fill="#000000" stroke-linecap="butt" opacity="1" stroke-linejoin="round"/>
<path stroke="#000000" stroke-width="6.94" d="M333.136+305.696C337.782+310.421+343.284+314.436+347.075+319.871C350.033+324.111+345.148+330.278+342.407+334.661C336.949+343.386+325.186+348.361+315.576+343.332C302.569+336.527+300.093+316.44+310.091+307.017C313.829+303.495+321.85+302.937+324.976+302.57C327.307+302.297+334.164+302.985+332+302.076C326.94+299.949+332.092+310.435+331.62+312.193C331.072+314.229+326.738+312.319+325.583+314.083C323.779+316.839+315.681+332.333+319.278+335.71C320.113+336.495+321.579+335.244+322.535+334.612C330.44+329.388+331.413+320.611+325.248+312.623C322.202+308.676+325.203+330.546+326.91+325.234C327.721+322.71+320.147+318.219+322.791+318.429C327.591+318.81+329.703+318.007+331.621+322.856L327.046+325.144C330.285+329.595+322.222+330.648+316.972+328.019C308.789+323.922+320.622+304.791+329.184+306.884C347.966+311.475+336.69+352.735+313.465+340.055C297.199+331.174+323.752+298.549+328.38+302.474C330.923+304.63+333.486+307.097+334.756+310.179C335.517+312.026+329.787+310.943+329.333+310.902C326.729+310.669+318.758+310.541+318.087+310.754C314.944+311.752+314.408+316.037+311.433+317.583C310.588+318.021+307.317+309.985+310.827+319.696C311.497+321.551+312.431+323.315+312.967+325.213C314.187+329.536+313.847+332.406+317.757+335.334C324.912+340.692+341.598+328.555+340.925+325.462C339.766+320.145+336.884+315.357+334.864+310.304" fill="#000000" stroke-linecap="butt" opacity="1" stroke-linejoin="round"/>
<path stroke="#000000" stroke-width="6.94" d="M499.967+387.571C489.651+389.677+481.241+374.175+495.86+369.676C501.905+367.816+509.94+380.215+505.037+383.407C490.867+392.636+485.732+370.275+497.932+371.73C501.002+372.096+502.746+374.656+502.548+377.817C502.337+381.174+491.969+385.168+498.033+385.762C500.956+386.049+500.839+374.272+494.939+375.516C492.55+376.019+497.167+384.138+498.347+382C499.269+380.327+502.155+373.812+498.806+372.991" fill="#000000" stroke-linecap="butt" opacity="1" stroke-linejoin="round"/>
<path stroke="#000000" stroke-width="6.94" d="" fill="#000000" stroke-linecap="butt" opacity="1" stroke-linejoin="round"/>
<path stroke="#000000" stroke-width="6.94" d="M394.709+521.597C400.568+509.197+408.369+529.488+400.366+532.832C394.263+535.383+387.578+528.702+388.875+522.521C390.261+515.915+397.748+517.935+397.291+519.736C393.309+535.423+392.59+515.028+394.146+525.414C394.48+527.641+402.09+530.732+400.04+524.587" fill="#000000" stroke-linecap="butt" opacity="1" stroke-linejoin="round"/>
<path stroke="#000000" stroke-width="6.94" d="" fill="#000000" stroke-linecap="butt" opacity="1" stroke-linejoin="round"/>
<path stroke="#000000" stroke-width="6.94" d="" fill="#000000" stroke-linecap="butt" opacity="1" stroke-linejoin="round"/>
<path stroke="#000000" stroke-width="6.94" d="M593.086+405.334C595.472+404.448+607.858+417.067+596.651+419.09" fill="#000000" stroke-linecap="butt" opacity="1" stroke-linejoin="round"/>
<path stroke="#000000" stroke-width="6.94" d="M601.02+407.294C598.965+414.04+600.855+414.896+596.185+416.683C583.232+421.64+586.759+396.066+593.58+398.493C597.212+399.785+596.765+399.582+598.163+402.252C608.54+422.056+573.087+415.643+586.59+406.667C586.59+406.667+599.398+417.699+593.529+409.02C589.381+402.886+591.335+410.557+592.108+412.667C593.147+415.498+591.26+405.657+593.59+403.743C594.118+403.31+595.956+402.405+595.314+402.638" fill="#000000" stroke-linecap="butt" opacity="1" stroke-linejoin="round"/>
<path stroke="#000000" stroke-width="6.94" d="M322.47+390.797C321.814+391.95+316.307+404.343+311.178+399.8C308.472+397.404+307.041+384.452+314.104+387.854C316.105+388.817+315.738+395.439+313.724+394.504C308.126+391.905+309.394+386.504+311.5+382.667C311.5+382.667+316.735+390.746+316.348+387.935C315.7+383.229+308.241+391.347+310.893+395.243C311.917+396.746+316.005+393.612+315.249+391.958C313.801+388.79+312.394+399.364+313.954+396.106" fill="#000000" stroke-linecap="butt" opacity="1" stroke-linejoin="round"/>
<path stroke="#000000" stroke-width="6.94" d="M520.348+261.867C539.638+279.19+506.944+262.764+509.284+258.41C510.727+255.722+517.915+251.004+521.104+254.044C530.306+262.816+520.274+263.278+518.318+262.133C511.057+257.878+527.232+260.618+513.383+257.59C511.682+257.218+519.568+271.544+520.089+268.696" fill="#000000" stroke-linecap="butt" opacity="1" stroke-linejoin="round"/>
<path stroke="#000000" stroke-width="6.94" d="M571.37+540.668C575.545+533.933+593.884+546.21+579.843+553.176C573.871+556.139+563.277+551.553+565.437+543.654C568.201+533.541+580.91+540.509+581.459+547.869C581.702+551.115+576.169+540.8+573.297+541.332C571.29+541.705+573.736+550.65+575.874+549.465C582.34+545.882+566.267+537.995+569.681+546.131C572.393+552.594+583.82+547.28+581.395+544.684" fill="#000000" stroke-linecap="butt" opacity="1" stroke-linejoin="round"/>
<path stroke="#000000" stroke-width="6.94" d="M644.684+668.177C648.272+668.367+649.953+673.201+651.768+676.302C655.305+682.349+644.125+689.578+639.144+684.282C635.268+680.162+634.082+668.306+642.146+668.064C645.724+667.956+650.298+673.066+645.807+675.807C640.33+679.15+647.713+671.146+645.316+669.823C641.822+667.896+639.238+682.268+643.564+682.231" fill="#000000" stroke-linecap="butt" opacity="1" stroke-linejoin="round"/>
<path stroke="#000000" stroke-width="6.94" d="M714.787+512.519C705.907+503.777+714.911+494.194+719.768+499.394C727.744+507.931+719.752+519.747+709.974+499.35C709.974+499.35+708.312+510.817+710.953+505.399C716.813+493.375+714.442+506.463+716.149+509.281C716.498+509.857+719.678+503.564+719.172+503.011" fill="#000000" stroke-linecap="butt" opacity="1" stroke-linejoin="round"/>
<path stroke="#000000" stroke-width="6.94" d="M391.808+655.786C384.506+661.644+381.638+665.689+374.83+657.837C374.657+657.637+374.186+654.719+374.229+654.667C379.642+648.098+390.099+655.169+383.663+659.333C380.82+661.173+375.59+654.924+374+653.333L374+653.333C378.635+657.968+386.729+660.853+378.844+654.244C377.712+653.296+378.106+658.091+379.482+658.63C381.772+659.527+384.399+658.797+386.858+658.88" fill="#000000" stroke-linecap="butt" opacity="1" stroke-linejoin="round"/>
</g>
</svg>
