<?xml version="1.0" encoding="UTF-8" standalone="no"?> <!-- Created with Vectornator for iOS (http://vectornator.io/) --><!DOCTYPE svg PUBLIC "-//W3C//DTD SVG 1.1//EN" "http://www.w3.org/Graphics/SVG/1.1/DTD/svg11.dtd">
<svg style="fill-rule:evenodd;clip-rule:evenodd;stroke-linecap:round;stroke-linejoin:round;" xmlns:vectornator="http://vectornator.io" xmlns:xlink="http://www.w3.org/1999/xlink" xmlns="http://www.w3.org/2000/svg" xml:space="preserve" version="1.1" viewBox="0 0 535 550">
<metadata>
<vectornator:setting key="DisplayWhiteBackground" value="0"/>
<vectornator:setting key="RulersVisible" value="1"/>
<vectornator:setting key="GridSpacing" value="36"/>
<vectornator:setting key="Units" value="Pixels"/>
<vectornator:setting key="DynamicGuides" value="0"/>
<vectornator:setting key="SnapToPoints" value="0"/>
<vectornator:setting key="SnapToGrid" value="0"/>
<vectornator:setting key="SnapToGuides" value="1"/>
<vectornator:setting key="ShowGrid" value="1"/>
<vectornator:setting key="SnapToEdges" value="0"/>
</metadata>
<defs/>
<g id="Layer 1" vectornator:layerName="Layer 1">
<path stroke="#000000" stroke-width="2.97" d="M259.494+11.4146C255.777+18.8272+282.411+13.9131+290.667+14.9316C306.388+16.8712+323.056+20.5251+338.336+24.6555C384.062+37.0154+438.345+67.7573+467.889+105.619C512.406+162.667+525.909+255.362+525.794+326.667C525.751+353.172+524.625+382.586+514.346+407.267C511.154+414.932+504.6+422.02+500.181+429.009C496.155+435.374+493.545+442.412+489.734+448.867C484.456+457.809+473.723+464.951+465.938+471.525C460.171+476.394+456.393+483.657+450.079+488.236C408.843+518.14+358.799+538.917+307.004+541.866C256.514+544.741+207.653+541.152+159.814+525.226C62.4014+492.796-8.49319+368.422+9.44193+268.434C17.0032+226.28+37.163+188.287+57.1698+151.314C65.9311+135.124+72.2722+118.646+84.104+104.294C100.835+83.9977+126.731+74.546+146.012+57.8855C155.701+49.5126+170.475+43.6638+182.555+39.6644C197.287+34.7869+208.399+23.2991+223.816+19.2062C226.871+18.395+257.576+16.0251+260.506+12.5854C264.855+7.47952+252.822+12.9129+251.247+13.8698C243+18.8785+232.583+20.5067+223.413+24.2399C209.928+29.7303+197.776+39.7487+184.112+44.3356C172.193+48.3367+158.244+53.9516+148.655+62.1145C127.974+79.7194+98.0207+90.1986+82.2815+113.807C73.8748+126.418+68.7326+140.851+61.4968+154.019C41.6128+190.205+22.172+227.572+14.5581+268.899C-3.68483+367.918+65.2896+487.991+161.52+520.108C208.542+535.801+256.675+539.193+306.329+536.8C357.044+534.357+406.662+513.617+447.255+485.098C453.654+480.602+457.534+473.295+463.396+468.475C470.891+462.311+481.11+455.582+486.266+447.133C490.247+440.607+492.955+433.416+497.153+426.991C501.519+420.308+507.889+413.499+510.987+406.067C532.508+354.444+523.729+268.265+509.738+215.732C498.277+172.7+490.324+131.286+457.612+98.5502C425.766+66.6811+381.094+39.296+337.664+27.3445C318.779+22.1476+299.354+18.2236+279.883+16.2686" fill="#000000" stroke-linecap="butt" opacity="1" stroke-linejoin="round"/>
<path stroke="#000000" stroke-width="6.94" d="M119.414+365.774C128.31+367.192+136.356+373.198+142.55+379.738C150.498+388.129+124.816+404.869+114.471+404.72C76.1027+404.166+105.55+345.914+129.952+365.27C140.288+373.47+126.364+402.188+109.038+393.394C94.8343+386.186+98.9745+361.967+115.714+362.476C123.361+362.709+130.151+373.047+127.991+380.178C123.869+393.786+103.701+383.029+107.201+378C108.86+375.617+111.21+373.361+114+372.557C115.844+372.026+117.585+373.94+119.427+374.479C124.776+376.045+117.699+381.07+117.109+375.682C116.74+372.311+131.284+372.923+123.92+368.893C119.905+366.696+121.305+386.309+115.365+386.444C111.15+386.539+119.677+378.628+116.038+374.769C114.438+373.073+109.549+380.919+113.342+381.155C114.74+381.242+119.903+373.991+118.952+372.191C115.286+365.246+98.111+380.404+111.7+386.216C116.75+388.376+134.292+376.811+121.592+369.865C113.012+365.173+94.9711+386.356+105.333+393.996C109.158+396.816+136.578+393.029+136.116+390.928" fill="#000000" stroke-linecap="butt" opacity="1" stroke-linejoin="round"/>
<path stroke="#000000" stroke-width="6.94" d="M295.978+307.497C282.262+300.011+253.145+289.944+261.563+280.965C263.997+278.369+280.876+275.478+282.715+275.206C297.701+272.99+308.223+275.687+303.292+294.542C298.236+313.871+267.982+313.202+263.835+293.52C259.742+274.087+304.32+255.592+307.638+277.991C312.511+310.896+269.957+312.791+267.715+283.875C266.006+261.847+303.574+294.68+294.662+300C280.283+308.583+259.875+299.88+273.015+284.432C292.286+261.775+310.399+298.502+293.269+304.301C276.469+309.989+274.223+293.981+272.56+282.106C272.176+279.365+273.067+275.923+275.28+274.261C281.915+269.281+289.974+282.233+283.889+286.344L280.111+285.656C283.126+288.464+284.14+277.789+283.386+273.739C283.133+272.377+283.573+276.515+283.44+277.894C283.148+280.93+282.843+283.986+282.114+286.948C281.267+290.391+278.332+293.509+278.731+297.032C278.905+298.576+281.97+298.498+283.336+297.757C288.398+295.012+295.24+277.555+281.652+283.568C278.139+285.122+280.472+288.877+280.825+290.859C281.374+293.941+278.175+296.909+278.672+300C278.882+301.306+281.436+302.769+282.247+301.724C283.166+300.538+279.299+278.902+277.82+276.931C277.111+275.986+276.107+278.957+276.285+280.125C276.63+282.386+278.549+284.137+279.25+286.314C280.35+289.731+279.985+294.135+282.659+296.531C291.032+304.032+307.181+276.058+299.792+272.75C293.026+269.721+275.413+279.148+272.654+281.526C268.1+285.45+271.958+292.118+273.143+295.866C273.269+296.265+272.964+296.935+273.347+297.105C280.137+300.109+301.1+294.549+298.448+284.373C296.655+277.499+276.823+283.513+273.402+283.705C270.423+283.872+262.189+281.042+264.484+282.948C272.972+289.997+281.954+296.429+290.689+303.169" fill="#000000" stroke-linecap="butt" opacity="1" stroke-linejoin="round"/>
<path stroke="#000000" stroke-width="6.94" d="M194.34+166.23C196.8+176.033+202.558+185.567+201.721+195.639C200.962+204.778+179.251+209.249+174.578+208.533C163.892+206.897+151.535+192.955+150.184+182.323C147.26+159.312+192.809+158.819+195.381+179.612C198.172+202.188+157.31+200.986+160.541+177.351C165.263+142.811+203.523+175.141+194.591+189.746C187.497+201.347+176.275+197.783+168.711+189.259C164.742+184.787+164.055+178.239+161.512+172.827C161.007+171.752+158.683+169.054+159.582+169.83C168.358+177.412+168.973+176.941+170.248+186.905C170.358+187.77+170.694+189.805+169.878+189.496C164.443+187.44+159.182+184.647+154.653+181.007C153.474+180.06+154.069+178.04+153.777+176.556L163.557+174.111C164.679+179.548+157.458+183.4+154.122+187.837C153.582+188.555+156.182+187.295+156.419+186.428C157.599+182.113+155.973+177.029+158.146+173.118C160.283+169.274+164.384+166.59+168.418+164.836C178.597+160.411+170.542+188.965+177.409+191.587C182.244+193.434+186.887+163.072+173.882+168.989C158.294+176.08+180.574+189.229+183.286+187.055C192.661+179.54+156.962+165.194+157.816+177.677C158.3+184.755+182.261+211.928+188.946+200.361C193.711+192.115+192.977+181.745+194.993+172.437" fill="#000000" stroke-linecap="butt" opacity="1" stroke-linejoin="round"/>
<path stroke="#000000" stroke-width="6.94" d="M362.654+104.629C364.283+114.376+370.872+124.566+367.54+133.869C365.465+139.661+356.207+139.54+350.059+139.795C334+140.46+320.918+130.126+318.275+114.666C315.567+98.832+337.239+75.4486+352.41+90.3583C362.821+100.589+365.142+129.929+342.691+126.716C317.229+123.072+327.059+87.7727+352.257+94.4167C367.167+98.3482+366.305+131.956+340.842+129.085C325.011+127.301+312.457+100.552+331.978+94.946C343.117+91.7473+349.273+109.68+339.907+115.296L333.426+112.704C338.481+117.681+335.861+101.065+333.859+97.6902C332.492+95.3861+333.615+103.364+335.024+105.642C337.781+110.102+337.474+116.355+341.083+120.157C343.495+122.698+359.614+101.821+348.059+101.078C325.99+99.6577+341.53+128.085+348.979+114.981C360.462+94.7812+332.793+82.4601+324.722+103.458C321.469+111.918+333.872+131.874+340.607+134.872C345.844+137.202+354.446+140.118+357.793+135.464C363.562+127.443+360.162+115.847+361.346+106.038" fill="#000000" stroke-linecap="butt" opacity="1" stroke-linejoin="round"/>
<path stroke="#000000" stroke-width="6.94" d="M236.667+52.4542C239.451+60.107+244.756+67.2732+245.021+75.4125C245.276+83.2685+196.358+84.725+194.91+75.4323C190.083+44.4511+227.375+36.0259+240.865+62.6294C246.179+73.1075+226.692+90.4177+216.07+85.5953C207.924+81.8972+200.351+70.245+198.94+61.2175C197.927+54.734+208.458+51.089+211.657+50.303C230.705+45.6216+241.597+71.5414+230.218+76.0546C225.056+78.1019+219.112+75.3335+213.645+74.3585C212.27+74.1131+211.162+73.0759+209.921+72.4347L210.079+71.5653C212.41+72.1538+217.321+73.4869+219.115+73.2788C238.83+70.9907+208.126+53.809+207.726+56.1158C205.402+69.5239+217.831+76.333+228.954+73.1615C230.328+72.7695+232.554+72.1309+232.468+70.704C230.895+44.6169+207.401+53.0827+198.423+67.2344C197.238+69.1033+211.881+71.2684+212.787+71.6247C225.826+76.7521+234.443+83.5188+236.313+79.2541C239.129+72.8294+236.549+65.2263+236.667+58.2124" fill="#000000" stroke-linecap="butt" opacity="1" stroke-linejoin="round"/>
<path stroke="#000000" stroke-width="6.94" d="M93.5757+253.48C90.2252+265.866+87.9908+299.815+63.2257+290.845C59.1633+289.374+56.4165+285.341+53.9422+281.799C36.7495+257.187+78.433+240.341+91.1198+252.13C112.392+271.899+79.5356+299.974+60.4573+283.247C57.8176+280.932+55.816+277.803+54.5456+274.53C47.5792+256.583+65.0151+245.325+78.7434+258.441C81.4932+261.068+87.1079+265.663+84.4099+268.344C66.4283+286.209+64.1674+270.722+62.4651+255.16C62.0717+251.564+68.3776+259.52+70.5145+262.439C75.1767+268.808+73.8132+273.949+67.2202+275.48L64.7798+273.853C62.1781+281.171+65.5883+246.701+70.8682+251.507C78.9143+258.83+71.9996+265.007+68.9234+272.99C68.6643+273.662+72.4794+257.063+65.7688+258.806C61.3363+259.956+61.8481+268.651+63.5427+271.42C72.6414+286.288+95.2044+265.011+85.4343+258.862C69.4457+248.798+44.8493+265.03+62.1076+281.155C64.9732+283.832+71.9241+284.699+75.1562+282.239C82.7197+276.481+88.8905+269.093+95.7577+262.52" fill="#000000" stroke-linecap="butt" opacity="1" stroke-linejoin="round"/>
<path stroke="#000000" stroke-width="6.94" d="M271.147+444.78C265.822+458.149+263.947+473.482+255.171+484.886C252.359+488.541+245.511+485.537+241.417+483.417C236.574+480.909+232.669+476.495+229.896+471.799C222.491+459.265+234.324+421.226+253.136+436.507C255.937+438.782+257.951+442.155+258.999+445.608C272.738+490.892+228.03+466.519+236.091+445.228C243.218+426.404+272.594+448.033+264.161+466.269C255.332+485.36+218.209+478.125+221.234+455.302C221.923+450.104+224.888+444.379+229.527+441.936C247.105+432.677+270.817+464.067+250.088+470.302L248.578+469.698C255.414+472.548+243.587+427.914+229.433+450.031C221.4+462.583+243.151+472.113+251.839+467.064C263.903+460.054+250.486+435.437+243.909+442.772C241.457+445.506+243.395+467.412+246.637+467.26C251.941+467.013+252.994+443.933+249.044+441.007C236.536+431.742+232.161+472.049+234.583+476.583C236.492+480.155+241.557+485.5+244.829+483.114C255.078+475.635+259.956+462.74+267.52+452.553" fill="#000000" stroke-linecap="butt" opacity="1" stroke-linejoin="round"/>
<path stroke="#000000" stroke-width="6.94" d="M388.541+417.189C384.914+427.031+381.91+437.126+377.662+446.716C375.481+451.639+368.437+452.806+363.145+453.801C351.779+455.938+340.528+448.66+338.333+437.25C331.029+399.288+393.705+392.902+391.72+431.116C391.005+444.881+374.406+452.899+362.867+445.847C350.447+438.257+351.338+404.622+365.126+409.931C369.884+411.762+373.852+415.626+376.854+419.746C389.689+437.36+352.281+448.302+353.418+424.583C353.641+419.942+356.091+415.673+357.767+411.34C358.127+410.408+358.915+409.705+359.489+408.888L365.844+411.112C363.857+414.369+364.199+418.628+362.582+422.084C359.435+428.807+359.098+421.417+364.417+425.371C365.693+426.319+363.181+434.911+363.906+432.692C365.383+428.168+373.534+419.524+369.183+414.378C366.454+411.15+359.795+439.786+372.291+440.592C374.825+440.755+377.824+439.162+378.947+436.884C389.406+415.661+350.709+404.416+347.001+430.75C346.241+436.146+347.355+439.485+352.238+441.765C367.281+448.79+372.494+437.344+382.126+426.811" fill="#000000" stroke-linecap="butt" opacity="1" stroke-linejoin="round"/>
<path stroke="#000000" stroke-width="6.94" d="M454.78+274.902C456.582+280.236+462.827+285.932+460.187+290.906C455.318+300.083+444.592+304.743+435.913+310.453C430.315+314.137+423.471+310.392+419.536+306.487C400.739+287.835+435.554+254.923+450.024+277.42C467.525+304.629+423.612+318.322+420.318+280.339C420.047+277.219+419.168+268.137+423.065+264.793C432.127+257.018+435.004+275.536+435.909+279.736C436.479+282.381+437.686+284.856+438.326+287.486C438.601+288.615+439.657+291.526+438.641+290.96C434.923+288.89+430.401+286.468+429.177+282.392C428.305+279.49+432.015+277.025+433.697+274.503C441.436+262.902+447.178+287.163+434.3+289.974L431.033+287.36C428.763+278.922+455.688+270.256+438.823+285.608C435.477+288.654+431.087+290.626+426.693+291.707C425.654+291.962+426.861+289.574+427.008+288.514C427.333+286.164+431.343+266.812+430.268+265.874C427.457+263.421+428.875+273.266+429.016+276.994C429.277+283.909+427.984+285.227+432.442+290.732C441.661+302.115+450.007+288.318+443.333+280.165C432.384+266.789+415.142+294.03+424.768+304.286C425.868+305.457+427.903+306.074+429.42+305.547C437.671+302.681+446.73+300.354+453.146+294.427C456.478+291.349+454.973+285.541+455.887+281.098" fill="#000000" stroke-linecap="butt" opacity="1" stroke-linejoin="round"/>
<path stroke="#000000" stroke-width="6.94" d="M490.741+144.648C490.815+151.727+492.309+159.331+489.585+166.063C474.548+203.222+432.999+158.305+445.671+135.501C458.554+112.316+498.407+134.251+483.636+158.545C467.197+185.583+443.721+143.021+459.298+132.368C466.814+127.228+481.131+147.001+478.254+152.936C475.658+158.296+471.067+157.46+466.336+155.326C455.615+150.49+461.228+137.294+468.17+144.327L466.497+147.673C467.331+146.496+465.124+145.136+464.473+143.849C463.544+142.012+467.407+146.834+468.331+148.674C469.423+150.851+467.177+153.085+469.746+155.064C473.486+157.945+466.379+134.521+464.702+134.298C455.749+133.111+465.718+180.287+478.173+153.681C488.142+132.386+440.943+116.596+453.519+153.526C454.371+156.027+457.347+164.608+459.013+167.974C460.763+171.509+468.837+171.456+471.333+171.672C486.304+172.969+485.116+158.642+485.259+146.019" fill="#000000" stroke-linecap="butt" opacity="1" stroke-linejoin="round"/>
<path stroke="#000000" stroke-width="6.94" d="M485.366+380.7C504.555+385.563+514.73+396.997+500.667+415.481C498.494+418.337+495.069+422.098+491.386+423.335C463.834+432.593+458.185+384.782+493.998+381.611C501.004+380.991+497.009+399.932+496.755+401.06C494.923+409.205+481.782+439.436+467.721+427.873C459.119+420.8+461.207+388.586+475.955+390.599C499.086+393.757+481.812+429.581+474.133+403.364C473.398+400.857+473.598+398.167+473.33+395.568L474.67+395.099C480.739+402.515+478.2+409.584+479.112+409.333C481.109+408.784+482.428+390.519+474.855+394.485C469.068+397.516+464.128+421.94+471.164+421.996C482.179+422.084+488.488+408.871+491.245+400.273C492.468+396.461+494.86+393.098+496.125+389.3C496.443+388.346+496.341+386.39+495.336+386.389C469.326+386.367+466.31+420.498+487.281+417.998C492.58+417.367+497.162+410.847+499.702+406.877C506.255+396.636+495.309+387.526+487.967+383.3" fill="#000000" stroke-linecap="butt" opacity="1" stroke-linejoin="round"/>
<path stroke="#000000" stroke-width="6.94" d="M327.776+527.132C328.013+524.271+323.937+522.838+321.746+520.983C317.019+516.98+306.411+542.858+305.366+528.022C304.795+519.912+328.626+522.324+332.005+523.99C334.306+525.125+340.209+530.035+337.872+528.974C332.164+526.381+334.962+531.63+329.036+532.013C325.148+532.265+321.223+532.051+317.333+531.973C314.416+531.913+310.914+533.561+312.577+535.955C313.106+536.716+313.169+534.042+312.814+533.186C311.565+530.175+309.117+532.003+314.741+530.149C319.368+528.624+321.85+532.667+321.85+532.667C326.924+538.598+304.985+536.608+307.308+533.103C311.923+526.139+339.53+522.154+335.333+532.931C334.881+534.093+326.178+526.79+325.623+526.608C317.962+524.095+310.814+532.118+304.127+531.064C304.012+531.045+305.597+529.227+311.27+523.27C316.474+517.806+321.8+517.637+329.266+518.403" fill="#000000" stroke-linecap="butt" opacity="1" stroke-linejoin="round"/>
<path stroke="#000000" stroke-width="6.94" d="M148.986+506.335C143.921+501.073+136.873+496.15+129.162+494.763C127.199+494.41+123.034+498.831+123.58+496.913C124.026+495.342+121.941+493.521+122.726+492.09C125.923+486.258+154.469+499.862+150.713+511.333C147.494+521.163+124.08+501.29+123.949+493.436L125.384+493.231C127.174+496.473+132.478+497.139+137.637+502.848C139.471+504.877+141.813+506.415+143.602+508.484C144.213+509.192+145.008+512.095+145.287+511.333C149.946+498.621+120.792+496.1+120.42+493.754C117.988+478.393+152.572+504.367+153.68+505.665" fill="#000000" stroke-linecap="butt" opacity="1" stroke-linejoin="round"/>
<path stroke="#000000" stroke-width="6.94" d="M49.0196+330.98C48.0768+335.1+45.1517+357.673+33.3333+353.728C21.2508+349.696+19.3447+313.798+38+319.805C51.5237+324.16+49.2739+351.474+34.5943+350.486C22.6992+349.685+12.3882+320.507+28.1047+316.876C45.674+312.817+49.0921+347.778+30.4942+349.483C18.0603+350.622+9.7454+324.328+22.2845+320.379C35.907+316.089+54.7249+332.738+43.9312+345.685C32.031+359.959+11.1473+353.773+13.847+334.667C14.9038+327.187+22.2796+328.868+26+324.667L26+324.667C25.4958+331.232+16.3819+347.392+27.1641+347.161C47.9222+346.715+32.3207+320.716+24.7913+323.287C19.6515+325.042+24.445+341.444+28.1725+342.517C36.7853+344.997+38.872+321.321+30.562+321.791C28.7164+321.895+25.653+321.274+25.1627+323.056C23.9061+327.624+29.7512+347.507+36.6976+344.006C49.1396+337.736+38.4718+318.922+28.4672+327.507C25.0749+330.417+34.1412+360.43+41.3289+346.266C43.2403+342.499+44.2077+338.324+45.647+334.353" fill="#000000" stroke-linecap="butt" opacity="1" stroke-linejoin="round"/>
<path stroke="#000000" stroke-width="6.94" d="M113.136+95.0295C117.782+99.7544+123.284+103.769+127.075+109.204C130.033+113.445+125.148+119.612+122.407+123.995C116.949+132.719+105.186+137.694+95.576+132.666C82.5686+125.86+80.0927+105.773+90.091+96.3507C93.829+92.8278+101.85+92.2699+104.976+91.9037C107.307+91.6305+114.164+92.3185+112+91.409C106.94+89.2826+112.092+99.7685+111.62+101.526C111.072+103.562+106.738+101.652+105.583+103.416C103.779+106.173+95.6808+121.666+99.2778+125.044C100.113+125.828+101.579+124.577+102.535+123.945C110.44+118.721+111.413+109.945+105.248+101.957C102.202+98.0096+105.203+119.879+106.91+114.568C107.721+112.043+100.147+107.552+102.791+107.762C107.591+108.143+109.703+107.34+111.621+112.19L107.046+114.477C110.285+118.928+102.222+119.981+96.9716+117.352C88.7888+113.255+100.622+94.1241+109.184+96.2171C127.966+100.808+116.69+142.068+93.4645+129.388C77.1985+120.507+103.752+87.8822+108.38+91.8074C110.923+93.9636+113.486+96.4299+114.756+99.5119C115.517+101.359+109.787+100.276+109.333+100.236C106.729+100.003+98.7578+99.8743+98.0872+100.087C94.9438+101.085+94.4084+105.371+91.433+106.916C90.5879+107.355+87.3173+99.3182+90.8266+109.03C91.4969+110.885+92.4313+112.648+92.9671+114.546C94.187+118.869+93.8474+121.74+97.7573+124.668C104.912+130.025+121.598+117.888+120.925+114.796C119.766+109.479+116.884+104.69+114.864+99.6372" fill="#000000" stroke-linecap="butt" opacity="1" stroke-linejoin="round"/>
<path stroke="#000000" stroke-width="6.94" d="M279.967+176.904C269.651+179.011+261.241+163.508+275.86+159.009C281.905+157.149+289.94+169.548+285.037+172.741C270.867+181.97+265.732+159.608+277.932+161.063C281.002+161.429+282.746+163.989+282.548+167.151C282.337+170.507+271.969+174.501+278.033+175.096C280.956+175.382+280.839+163.606+274.939+164.849C272.55+165.352+277.167+173.471+278.347+171.333C279.269+169.661+282.155+163.145+278.806+162.324" fill="#000000" stroke-linecap="butt" opacity="1" stroke-linejoin="round"/>
<path stroke="#000000" stroke-width="6.94" d="M174.709+310.93C180.568+298.53+188.369+318.821+180.366+322.166C174.263+324.716+167.578+318.035+168.875+311.854C170.261+305.248+177.748+307.268+177.291+309.07C173.309+324.756+172.59+304.361+174.146+314.747C174.48+316.975+182.09+320.066+180.04+313.92" fill="#000000" stroke-linecap="butt" opacity="1" stroke-linejoin="round"/>
<path stroke="#000000" stroke-width="6.94" d="M373.086+194.667C375.472+193.781+387.858+206.4+376.651+208.424" fill="#000000" stroke-linecap="butt" opacity="1" stroke-linejoin="round"/>
<path stroke="#000000" stroke-width="6.94" d="M381.02+196.627C378.965+203.373+380.855+204.229+376.185+206.016C363.232+210.973+366.759+185.399+373.58+187.826C377.212+189.118+376.765+188.916+378.163+191.585C388.54+211.39+353.087+204.976+366.59+196C366.59+196+379.398+207.033+373.529+198.353C369.381+192.219+371.335+199.89+372.108+202C373.147+204.831+371.26+194.99+373.59+193.076C374.118+192.643+375.956+191.738+375.314+191.972" fill="#000000" stroke-linecap="butt" opacity="1" stroke-linejoin="round"/>
<path stroke="#000000" stroke-width="6.94" d="M102.47+180.131C101.814+181.283+96.3068+193.677+91.1777+189.134C88.4723+186.737+87.0409+173.785+94.104+177.187C96.1046+178.15+95.7375+184.772+93.7235+183.837C88.1259+181.239+89.3935+175.837+91.5+172C91.5+172+96.7352+180.08+96.3481+177.268C95.7002+172.562+88.2414+180.68+90.8935+184.576C91.9168+186.079+96.0048+182.945+95.2489+181.291C93.8013+178.123+92.3937+188.697+93.9539+185.439" fill="#000000" stroke-linecap="butt" opacity="1" stroke-linejoin="round"/>
<path stroke="#000000" stroke-width="6.94" d="M300.348+51.2006C319.638+68.5236+286.944+52.0977+289.284+47.7433C290.727+45.0557+297.915+40.3376+301.104+43.3776C310.306+52.1497+300.274+52.6116+298.318+51.4661C291.057+47.2115+307.232+49.9512+293.383+46.9234C291.682+46.5516+299.568+60.8773+300.089+58.0297" fill="#000000" stroke-linecap="butt" opacity="1" stroke-linejoin="round"/>
<path stroke="#000000" stroke-width="6.94" d="M351.37+330.001C355.545+323.266+373.884+335.544+359.843+342.51C353.871+345.472+343.277+340.887+345.437+332.987C348.201+322.874+360.91+329.843+361.459+337.202C361.702+340.448+356.169+330.133+353.297+330.666C351.29+331.038+353.736+339.983+355.874+338.798C362.34+335.215+346.267+327.329+349.681+335.465C352.393+341.927+363.82+336.613+361.395+334.017" fill="#000000" stroke-linecap="butt" opacity="1" stroke-linejoin="round"/>
<path stroke="#000000" stroke-width="6.94" d="M424.684+457.51C428.272+457.701+429.953+462.534+431.768+465.636C435.305+471.683+424.125+478.911+419.144+473.616C415.268+469.495+414.082+457.64+422.146+457.397C425.724+457.289+430.298+462.399+425.807+465.14C420.33+468.484+427.713+460.479+425.316+459.157C421.822+457.23+419.238+471.602+423.564+471.564" fill="#000000" stroke-linecap="butt" opacity="1" stroke-linejoin="round"/>
<path stroke="#000000" stroke-width="6.94" d="M494.787+301.853C485.907+293.111+494.911+283.528+499.768+288.727C507.744+297.265+499.752+309.08+489.974+288.683C489.974+288.683+488.312+300.151+490.953+294.732C496.813+282.708+494.442+295.797+496.149+298.614C496.498+299.19+499.678+292.898+499.172+292.344" fill="#000000" stroke-linecap="butt" opacity="1" stroke-linejoin="round"/>
<path stroke="#000000" stroke-width="6.94" d="M171.808+445.12C164.506+450.977+161.638+455.022+154.83+447.17C154.657+446.971+154.186+444.052+154.229+444C159.642+437.431+170.099+444.502+163.663+448.667C160.82+450.507+155.59+444.257+154+442.667L154+442.667C158.635+447.302+166.729+450.187+158.844+443.578C157.712+442.629+158.106+447.424+159.482+447.963C161.772+448.861+164.399+448.13+166.858+448.214" fill="#000000" stroke-linecap="butt" opacity="1" stroke-linejoin="round"/>
</g>
</svg>
